<?xml version="1.0" standalone="no"?>
<!DOCTYPE svg PUBLIC "-//W3C//DTD SVG 1.1//EN" "http://www.w3.org/Graphics/SVG/1.1/DTD/svg11.dtd" >
<!--
2013-9-30: Created.
-->
<svg>
<metadata>
Created by iconfont
</metadata>
<defs>

<font id="iconfont" horiz-adv-x="1024" >
  <font-face
    font-family="iconfont"
    font-weight="500"
    font-stretch="normal"
    units-per-em="1024"
    ascent="896"
    descent="-128"
  />
    <missing-glyph />
    
    <glyph glyph-name="gou" unicode="&#58880;" d="M987.67786667 680.26773334l-612.33493334-659.4112-329.7184 423.90826666 120.69973334 103.03146667 209.01866666-217.84213333 518.13013334 444.5152z"  horiz-adv-x="1000" />

    
    <glyph glyph-name="lajitong" unicode="&#58882;" d="M840.992 612q30.016 0 49.504-10.016t31.008-24.992 16-32.512 4.512-32.512q0-7.008-0.512-11.008t-0.512-7.008l0-6.016-66.016 0 0-524.992q0-20-8-38.496t-23.008-32.512-36.512-22.496-49.504-8.512l-446.016 0q-26.016 0-48.992 8t-39.488 22.496-26.016 35.008-9.504 46.496l0 515.008-62.016 0q-0.992 0.992-0.992 4.992-0.992 4.992-0.992 31.008 0 12.992 6.016 28.992t18.016 29.504 31.008 22.496 44.992 8.992l88.992 0 0 60.992q0 26.016 18.016 44.512t44 18.496l312.992 0q35.008 0 48.512-18.496t13.504-44.512l0-62.016q20.992-0.992 44.992-0.992l46.016 0zM375.008 612l312.992 0 0 63.008-312.992 0 0-63.008zM344-20.992q32 0 32 40.992l0 464-62.016 0 0-464q0-20.992 6.496-31.008t23.488-10.016zM532.992-20q16.992 0 23.008 9.504t6.016 30.496l0 464-62.016 0 0-464q0-40 32.992-40zM720.992-18.016q18.016 0 24 9.504t6.016 30.496l0 462.016-63.008 0 0-462.016q0-40 32.992-40z"  horiz-adv-x="1024" />

    
    <glyph glyph-name="tuandui" unicode="&#58883;" d="M504.574 653.914c60.933-4.886 115.313-23.627 151.732-76.624 19.671-28.627 23.652-61.104 18.652-94.969-0.433-2.94-0.678-5.962-1.541-8.785-1.804-5.878 0.603-8.426 6.207-9.815 20.358-5.065 24.134-10.144 24.246-30.798 0.099-19.162-5.059-37.268-11.054-55.165-4.718-14.087-14.154-23.050-29.616-23.882-6.018-0.326-8.285-3.010-9.731-8.796-15.378-61.421-54.762-102.909-110.32-130.118-25.367-12.428-50.431-7.439-74.022 6.029-41.472 23.681-72.983 56.558-90.999 101.341-2.821 7.015-5.1 14.398-6.445 21.823-1.137 6.262-4.093 8.919-10.093 10.166-12.82 2.662-22.022 10.262-27.325 22.311-8.492 19.313-13.414 39.434-12.771 60.641 0.478 15.827 6.483 23.325 21.757 25.91 6.571 1.109 6.86 4.198 6.523 9.483-1.665 26.062-2.769 52.133 3.249 77.894 10.803 46.273 35.636 69.069 82.672 75.835 3.926 0.565 7.904 1.507 11.811 1.33 9.502-0.432 16.151 0.749 19.606 12.234 2.923 9.732 13.693 12.733 23.581 13.86 4.571 0.528 9.251 0.097 13.882 0.097v0zM586.42 8.418c4.26 11.424 8.574 22.745 12.702 34.13 13.314 36.704 26.726 73.369 39.708 110.19 2.901 8.224 6.029 10.606 15.090 7.246 33.481-12.423 67.717-22.761 100.91-36.004 28.655-11.441 53.874-26.954 67.173-56.686 5.905-13.198 8.874-26.986 9.040-41.386 0.121-10.253-0.012-20.517-0.062-30.779-0.124-23.703-17.73-41.15-41.505-41.155-182.714-0.039-365.425 0.045-548.133-0.289-20.292-0.038-35.428 6.561-44.039 25.511-1.088 2.399-2.484 4.97-2.513 7.471-0.205 22.766-2.779 45.636 3.744 68.082 10.415 35.822 36.532 55.813 69.513 68.187 34.684 13.006 69.868 24.691 104.679 37.363 7.903 2.878 10.949 0.662 13.62-6.905 16.107-45.533 32.667-90.899 49.093-136.321 0.993-2.755 2.119-5.468 3.161-8.137 3.977-0.283 4.563 2.887 5.769 4.931 13.088 22.244 25.838 44.7 39.187 66.788 3.755 6.218 1.636 9.33-3.167 13.123-14.509 11.473-22.495 26.565-23.742 45.1-0.91 13.449 5.301 23.302 16.794 29.145 25.051 12.729 50.857 13.853 76.385 1.581 16.303-7.841 21.418-19.821 18.118-37.687-2.972-16.063-11.508-28.731-23.749-39.056-4.007-3.383-6.284-6.382-3.077-11.685 14.365-23.781 28.54-47.679 42.825-71.51 0.277-0.454 1.097-0.57 2.48-1.248v0zM745.152 813.524c49.973-3.715 95.907-20.652 130.239-61.22 20.532-24.263 28.053-53.536 25.845-85.141-0.573-8.209-0.67-16.539-3.137-24.542-1.295-4.193 0.454-5.657 4.75-6.404 19.068-3.3 23.222-8.391 23.461-27.67 0.243-19.843-5.102-38.572-11.775-56.962-4.066-11.196-12.862-16.676-24.385-17.174-6.583-0.285-8.729-3.14-10.293-9.268-14.707-57.494-51.306-96.377-104.197-121.129-0.301-0.139-0.604-0.272-0.915-0.388-20.449-8.043-22.046-6.595-19.373 14.585 3.494 27.692-1.091 53.442-20.846 74.727-3.811 4.102-5.701 8.352-5.806 14.096-1.474 80.084-42.301 134.673-111.374 170.566-17.271 8.979-17.452 8.497-14.57 27.953 4.164 28.123 13.499 53.307 39.297 69.031 16.576 10.103 35.127 13.331 54.096 14.186 6.523 0.293 9.926 1.83 11.786 8.739 2.633 9.827 11.424 13.195 20.508 14.875 4.836 0.9 9.871 0.721 16.689 1.142v0zM267.94 813.36c55.83-5.437 105.174-23.327 138.221-72.141 10.976-16.206 16.234-34.485 18.019-54.001 0.705-7.698-1.892-10.653-9.029-12.074-27.131-5.403-51.727-16.195-71.997-35.534-28.041-26.747-40.019-60.9-44.512-98.256-1.42-11.796-1.598-23.747-2.106-35.637-0.185-4.143-1.099-7.57-4.106-10.721-20.793-21.796-26.481-47.972-22.179-77.077 2.983-20.176 0.305-22.562-18.585-14.519-53.69 22.86-89.828 61.831-105.817 118.379-2.23 7.904-5.169 12.661-13.755 14.192-8.94 1.591-15.245 7.76-19.394 15.745-10.288 19.838-14.575 41.074-13.453 63.285 0.56 11.202 6.617 18.278 18.061 20.637 6.401 1.318 8.13 4.231 7.731 10.105-1.082 16.144-1.599 32.194-0.528 48.482 3.999 60.785 33.205 90.778 94.291 94.515 6.743 0.414 10.548 1.657 12.607 9.073 2.829 10.194 12.219 13.283 21.674 14.797 4.866 0.774 9.902 0.532 14.853 0.754v0zM146.128 176.451c-35.727 0-71.455-0.055-107.181 0.028-17.973 0.042-32.86 12.273-34.661 30.259-1.607 16.077-1.908 32.43 0.516 48.51 5.893 39.22 30.146 63.898 65.302 78.475 26.86 11.142 54.433 20.566 81.727 30.658 12.034 4.455 12.13 4.369 16.082-7.472 13.515-40.462 26.97-80.935 40.501-121.394 1.014-3.031 0.766-7.853 4.13-8.385 4.144-0.656 5.148 4.436 7.029 7.276 10.596 15.989 20.714 32.305 31.523 48.144 3.909 5.729 2.896 8.685-2.27 12.855-13.050 10.543-21.774 23.887-22.809 41.239-0.617 10.247 3.842 17.938 12.516 23.131 11.751 7.038 24.596 9.251 38.157 8.341 4.291-0.286 6.51-2.618 8.029-6.228 6.529-15.49 15.923-28.956 28.619-40.003 3.767-3.27 3.767-6.389 1.232-10.374-4.143-6.497-8.946-12.525-15.196-16.854-5.479-3.802-5.386-6.974-1.931-12.065 14.661-21.629 28.981-43.484 43.502-65.209 6.765-10.116 6.611-11.025-4.679-15.007-22.445-7.924-45.415-14.366-67.355-23.743-4.981-2.129-10.267-2.224-15.596-2.218-35.73 0.051-71.462 0.030-107.19 0.035v0zM878.963 176.412c-34.74 0-69.477 0.21-104.219-0.138-9.246-0.095-17.574 2.557-26.006 5.457-19.699 6.773-39.376 13.621-59.062 20.432-10.599 3.666-10.971 4.758-4.781 14.35 14.187 21.948 28.214 44.013 42.694 65.76 3.648 5.479 4.129 9.134-1.836 12.906-2.747 1.73-4.964 4.358-7.222 6.773-9.84 10.531-9.645 11.516 0.449 21.707 9.888 9.988 17.763 21.521 22.235 34.867 2.573 7.669 6.911 10.141 14.697 9.761 16.803-0.815 34.164-2.883 41.146-20.105 7.382-18.196-1.719-34.157-14.416-47.562-11.983-12.647-12.234-12.562-2.749-27.17 8.995-13.86 18.17-27.607 27.351-41.345 1.393-2.079 2.231-5.618 5.309-5.135 2.951 0.459 2.962 4.014 3.764 6.421 13.76 41.084 27.753 82.096 40.97 123.358 3.067 9.572 6.561 11.739 16.105 7.899 29.743-11.941 60.752-20.651 89.597-34.946 37.766-18.711 58.475-48.388 58.646-91.252 0.035-8.608 0.177-17.215-0.049-25.812-0.576-21.65-14.786-36.025-36.414-36.186-35.402-0.267-70.805-0.074-106.207-0.074-0.002 0.010-0.002 0.022-0.002 0.032v0zM878.963 176.412z"  horiz-adv-x="1024" />

    
    <glyph glyph-name="manager" unicode="&#58921;" d="M350.992 343.462c53.687-73.733 135.951-79.463 159.885-79.463h2.246c23.934 0 106.196 5.73 159.883 79.461 21.139 29.031 42.654 81.574 52.007 105.804 31.813 37.991 43.877 74.076 35.861 107.381-4.039 16.778-13.089 31.461-25.553 42.206 4.948 40.32 4.686 85.969-9.932 126.097-20.745 56.951-58.239 97.172-111.435 119.541-41.867 17.608-81.557 19.509-96.679 19.509h-2.248c-1.189 0-2.203-0.011-3.026-0.028-0.825 0.017-1.841 0.028-3.030 0.028h-2.246c-15.12 0-54.81-1.901-96.681-19.509-53.197-22.371-90.688-62.589-111.435-119.543-14.618-40.131-14.878-85.776-9.932-126.096-12.461-10.746-21.514-25.429-25.553-42.208-8.016-33.306 4.048-69.388 35.863-107.379 9.352-24.231 30.862-76.774 52.003-105.802zM333.001 556.477c17.396 6.516 29.074-19.417 33.324-30.999-4.841 14.932-17.994 59.231-20.209 105.9 15.664 21.896 46.922 58.592 84.011 64.573 0 0 80.175-95.876 245.008-94.005-4.732-34.882-13.657-64.74-17.462-76.47 4.254 11.582 15.928 37.515 33.324 30.999 10.507-3.936 28.26-24.911-18.285-75.885 0 0-26.563-72.086-48.21-101.813-31.905-43.813-81.456-54.778-111.379-54.778-0.283 0.017-0.673 0.039-1.125 0.073-0.45-0.034-0.84-0.056-1.123-0.073-29.925 0-79.479 10.965-111.381 54.78-21.647 29.726-48.21 101.813-48.21 101.813-46.545 50.974-28.791 71.949-18.285 75.885zM572.984 203.606l-27.833 30.394h-66.308l-27.833-30.394c0 0 15.906-33.919 41.751-47.104l-41.751-105.527c0 0 30.523-43.521 60.988-54.735 30.465 11.214 60.986 54.735 60.986 54.735l-41.749 105.527c25.839 13.185 41.747 47.104 41.747 47.104zM946.16 123.362c-50.574 64.747-275.762 110.638-275.762 110.638 29.824-171.229-158.398-275.353-158.398-275.353s-188.222 104.124-158.4 275.353c0 0-225.189-45.891-275.762-110.638-53.591-68.616-47.284-136.273-43.309-164.537 3.977-28.262 10.924-45.405 56.647-54.825h841.642c45.726 9.42 52.672 26.563 56.649 54.825 3.977 28.264 10.284 95.921-43.309 164.537z"  horiz-adv-x="1025" />

    
    <glyph glyph-name="toupiao2" unicode="&#58945;" d="M89.6 403.2768c-31.7952 0-57.6-25.7664-57.6-57.6l0-268.8c0-31.7952 25.8048-57.6 57.6-57.6 31.7952 0 57.6 25.8048 57.6 57.6l0 268.8C147.2 377.5104 121.3952 403.2768 89.6 403.2768zM607.9616 614.5152l0-105.984c-45.312-20.0064-84.8256-50.304-115.2-88.32l0 194.304c0 31.872 25.728 57.6 57.6 57.6C582.2336 672.1152 607.9616 646.4256 607.9616 614.5152zM320 787.2768c-31.7952 0-57.6-25.7664-57.6-57.6l0-652.8c0-31.7952 25.8048-57.6 57.6-57.6 31.7952 0 57.6 25.8048 57.6 57.6l0 652.8C377.6 761.5104 351.7952 787.2768 320 787.2768zM732.7616 489.7152c-15.0144 0-29.952-1.152-44.1216-3.84-85.5936-14.592-157.056-69.888-191.616-145.152-15.0144-32.256-23.3856-68.0064-23.3856-105.6s8.4096-73.344 23.3856-105.216c8.0256-17.664 18.0864-33.792 29.6064-49.152 47.616-60.672 122.112-100.1856 206.208-100.1856 143.1936 0 259.2 114.048 259.2 254.592S875.9552 489.7152 732.7616 489.7152zM732.7616 21.235199999999963c-58.4064 0-111.744 23.0784-150.4896 59.52-41.5104 39.2064-67.2 93.696-67.2 154.4064 0 103.296 74.4576 189.312 173.568 209.28 14.208 3.072 28.8 4.608 44.1216 4.608 120.192 0 217.728-95.616 217.728-213.888C950.4512 117.23519999999996 852.9536 21.235199999999963 732.7616 21.235199999999963zM826.112 255.62879999999996l-72.5376 0 0 71.1936c0 11.2128-9.3312 20.352-20.736 20.352-11.4432 0-20.7744-9.1392-20.7744-20.352l0-71.1936-72.4992 0c-11.5968 0-20.7744-9.1392-20.7744-20.3904 0-11.1744 9.1392-20.3136 20.7744-20.3136l72.4992 0L712.064 143.69280000000003c0-11.2128 9.2928-20.352 20.7744-20.352 11.4048 0 20.736 9.1392 20.736 20.352l0 71.1936 72.5376 0c11.4048 0 20.736 9.1392 20.736 20.3136C846.8096 246.45119999999997 837.5168 255.62879999999996 826.112 255.62879999999996z"  horiz-adv-x="1025" />

    
    <glyph glyph-name="caution" unicode="&#58914;" d="M505.52000000000004 824.28c-245.76 0-444.96000000000004-199.2-444.96000000000004-444.96000000000004s199.2-444.96000000000004 444.96000000000004-444.96000000000004c245.7 0 444.9 199.2 444.9 444.96000000000004S751.1600000000001 824.28 505.52000000000004 824.28zM552.02 99.48000000000002L458.84 99.48000000000002l0 93.3 93.17999999999999 0L552.02 99.48000000000002zM552.02 286.0200000000001L458.84 286.0200000000001 458.84 659.1l93.17999999999999 0L552.02 286.0200000000001z"  horiz-adv-x="1024" />

    
    <glyph glyph-name="kaishi" unicode="&#59107;" d="M521.99999999 843.99999999C273.47999999 843.99999999 71.99999999 642.57999999 71.99999999 393.99999999 71.99999999 145.41999998999995 273.47999999-56.00000001000001 521.99999999-56.00000001000001c248.58 0 450 201.42 450 450C971.99999999 642.57999999 770.57999999 843.99999999 521.99999999 843.99999999zM717.95999999 364.29999998999995l-240-175.02C473.03999999 185.73999999 467.51999999 183.99999999 461.99999999 183.99999999c-4.98 0-10.02 1.5-14.52 4.38C437.93999999 194.55999999000005 431.99999999 206.25999998999998 431.99999999 218.97999999L431.99999999 569.01999999c0 12.72 5.94 24.42 15.48 30.6C456.95999999 605.73999999 468.59999999 605.4399999899999 477.89999999 598.65999999l240-175.02C726.65999999 417.27999999 731.99999999 406.05999999 731.99999999 393.99999999S726.65999999 370.71999999 717.95999999 364.29999998999995z"  horiz-adv-x="1024" />

    
    <glyph glyph-name="gou1" unicode="&#59143;" d="M505.344-40.928l-434.944 315.392c-17.888 12.96-21.856 37.984-8.896 55.872 12.928 17.888 37.984 21.888 55.872 8.896l367.296-266.368 409.376 619.392c12.192 18.464 36.992 23.456 55.424 11.328 18.432-12.192 23.488-36.992 11.328-55.424L505.344-40.928z"  horiz-adv-x="1024" />

    
    <glyph glyph-name="doc" unicode="&#58891;" d="M607.99635 523.898373 607.99635 747.889867 192.012148 747.889867 192.012148 363.904449 831.987844 363.904449 831.987844 523.898373ZM831.987844 555.897158 639.995135 555.897158 639.995135 747.889867ZM217.323627 146.638123l-45.685505 0L171.638121-15.417763l45.685505 0c46.197158 0 81.028455 33.725102 81.028455 80.246649l0 0.750083c0 21.390169-7.253194 42.959418-22.467711 58.372455C260.524544 139.580381 238.896968 146.638123 217.323627 146.638123zM275.883347 123.951425C282.914484 116.827167 268.821511 131.139128 275.883347 123.951425L275.883347 123.951425zM0.019439 300.257873l0-447.982988 1023.961114 0 0 447.982988L0.019439 300.257873zM360.161822 65.578969c0-79.216179-66.165955-134.370337-142.838196-134.370337L112.48386-68.791367l0 268.802072L217.323627 200.010705c76.473719 0 142.838196-54.333466 142.838196-133.620253L360.161822 65.578969zM672.61916 65.578969c0-179.879833-285.676391-181.02389-285.676391-0.750083l0 0.750083c0 179.892113 285.676391 181.094498 285.676391 0.812505L672.61916 65.578969zM925.983635-45.354586c-89.87596-70.992891-226.553852-3.062755-226.553852 110.183472l0 0.750083c0 126.682237 159.095461 183.762257 246.177795 97.558943l-37.623899-43.372833c-55.446823 49.838082-146.744155 31.299867-146.744155-53.372581l0-0.812505c0-85.98842 92.969415-104.609523 148.618852-52.93563l37.623899-38.060851C940.608727-32.8549 933.421025-39.479785 925.983635-45.354586zM529.998929 66.266631m-81.996502 0a80.129 80.129 0 1 0 163.993005 0 80.129 80.129 0 1 0-163.993005 0Z"  horiz-adv-x="1024" />

    
    <glyph glyph-name="xls1" unicode="&#58895;" d="M607.99635 523.898373 607.99635 747.889867 192.012148 747.889867 192.012148 363.904449 831.987844 363.904449 831.987844 523.898373ZM831.987844 555.897158 639.995135 555.897158 639.995135 747.889867ZM0.019439 300.257873l0-447.982988 1023.961114 0 0 447.982988L0.019439 300.257873zM331.19407-68.791367l-60.310597 92.183516-60.622706-92.183516-67.24759 0 93.746104 136.681986-89.871867 132.120087 69.122287 0 56.435337-87.184665 56.809867 87.184665 67.24759 0-89.871867-131.307581 93.683682-137.494491L331.19407-68.791367zM637.495198-68.791367 444.376852-68.791367l0 268.802072 59.122539 0L503.499391-15.417763l133.994784 0L637.494175-68.791367zM884.048547 10.706221c0-112.541169-155.056472-99.43364-212.304314-40.311101l34.873252 41.811268c10.374278-10.937097 108.371196-61.935608 119.057583-7.250124l0 0.750083c0 54.787814-143.620002 27.084868-143.620002 116.370381l0 0.750083c0 102.285594 132.932592 99.43364 193.555298 46.811142l-27.624151-41.373293c-21.999037 15.999392-107.558691 50.240241-107.558691-0.062422l0-0.750083c-0.436952-50.186006 143.620002-28.470425 143.620002-115.995851L884.047524 10.706221z"  horiz-adv-x="1024" />

    
    <glyph glyph-name="pdf" unicode="&#58896;" d="M607.99635 523.898373 607.99635 747.889867 192.012148 747.889867 192.012148 363.904449 831.987844 363.904449 831.987844 523.898373ZM831.987844 555.897158 639.995135 555.897158 639.995135 747.889867ZM564.310386 123.951425c-15.368012 15.640212-36.970006 22.686698-58.560744 22.686698l-45.685505 0L460.064137-15.417763l45.685505 0c46.181809 0 81.059154 33.718963 81.059154 80.246649l0 0.750083C586.809819 86.933323 579.538205 108.589552 564.310386 123.951425 557.248549 131.139128 571.372222 116.827167 564.310386 123.951425zM246.510366 146.638123l-45.685505 0 0-82.184791 46.811142 0c24.241101 0 46.873564 14.341636 46.873564 40.685631l0 0.812505C294.508543 133.82633 271.944642 146.638123 246.510366 146.638123zM0.019439 300.257873l0-447.982988 1023.961114 0 0 447.982988L0.019439 300.257873zM354.381166 106.327022c0-61.450561-51.710732-94.496188-108.683305-94.496188l-44.873 0 0-80.622202-59.184961 0 0 268.802072 109.87034 0c55.531757 0 102.870926-34.262338 102.870926-92.933599L354.381166 106.327022zM648.61956 65.578969c0-79.232552-66.197678-134.370337-142.869918-134.370337L400.941598-68.791367l0 268.802072 104.808044 0c76.471672 0 142.869918-54.31914 142.869918-133.620253L648.61956 65.578969zM908.672364 146.638123 763.115244 146.638123l0-57.997925 128.244826 0 0-53.372581L763.115244 35.267617l0-104.058984-59.122539 0 0 268.802072 204.679659 0L908.672364 146.638123z"  horiz-adv-x="1024" />

    
    <glyph glyph-name="gonggao" unicode="&#58964;" d="M49.536 571.822h110.934v-250.862h-110.934v250.862zM409.979 208.092l-113.062-0.002c0 0 16.236-147.266 135.673-301.493 0 0 103.783-4.641 119.441 38.267 0 0 11.014 28.413-22.031 64.937-10.577 16.793-104.642 96.25-120.020 198.293zM813.721 860.565c-202.548-241.195-588.698-255.306-588.698-255.306l0.119-321.309c457.44-20.878 590.21-193.072 590.21-193.072 176.828 44.066 158.388 356.865 158.393 356.865 13.22 454.245-160.025 412.822-160.025 412.822z"  horiz-adv-x="1024" />

    
    <glyph glyph-name="866yunpan" unicode="&#60133;" d="M861.83224206 476.99923171c-1.87102208 1.09676544-3.64773603 2.1050459-5.34527886 3.06675371-7.95213483 4.50698581-11.94333867 6.76921117-16.36300231 12.88059563-6.53635243 9.0407515-9.75562866 20.76636615-13.16468395 33.18008036-1.563648 5.69340245-3.17968953 11.58007808-5.1822774 17.46442581-19.07813831 56.07477817-58.26365326 106.37581767-110.34140672 141.63882211C657.92459207 721.46626333 594.24114574 740.61891698 527.26972985 740.61891698c-63.03842645 0-123.64580637-17.14773789-175.27297707-49.58732629-50.73881429-31.88305579-89.40039509-76.20427549-111.80725361-128.17374891-8.18033664-18.97218845-16.03700053-29.83506034-29.52186539-45.64153003-14.83777593-17.3922395-26.98952363-27.72070059-43.34204815-36.8417883-43.93234546-24.50258944-80.70194745-58.89702912-106.33506702-99.46456178-26.59366343-42.09043001-40.65136185-90.13506617-40.65136184-138.93998592 0-80.33170091 38.13066297-156.86547229 104.61423957-209.98177678 3.09586034-2.47179833 6.93919858-3.81888739 10.90129465-3.8188874l751.54779932 0c3.96093213 0 7.80543431 1.34708907 10.9001307 3.8188874 66.48357661 53.11397547 104.61423957 129.64891079 104.61423958 209.98177678C1002.91685831 337.33039672999996 950.17545728 425.19159467 861.83224206 476.99923171zM881.17351083 63.09932601000003L142.08483328 63.09932601000003c-55.25278606 46.24114233-86.81566094 111.10634837-86.81566094 178.87181369 0 85.10414734 48.25071502 162.82317027 129.07025635 207.90001777 20.03402525 11.17374009 35.36080555 24.11720818 52.89974557 44.67632925 15.12419328 17.72755627 25.18603093 31.66067485 35.02548764 54.4820224C312.66453731 642.73313906 415.14345927 705.6900653499999 527.26972985 705.6900653499999c121.10065664 0 226.16431389-69.66326613 261.44012516-173.34723356 1.66610603-4.89353216 3.07490361-10.02690901 4.56752924-15.46300302 3.89107371-14.17179933 8.3014235-30.23557859 18.54256356-44.39806294 8.87891399-12.27981938 17.89637973-17.39107555 27.44359822-22.80155477 1.5554981-0.88137159 3.18318251-1.80349269 4.89818908-2.80944413 77.53622869-45.47154375 123.82743552-122.06818645 123.82743552-204.89962951C967.98800669 174.20334534999995 936.42513294 109.33930439000005 881.17351083 63.09932601000003zM724.91696469 445.06611143c-6.81927566 6.82044075-17.8777509 6.82044075-24.6981905 0l-74.1190235-74.1190235c-6.82044075-6.81927566-6.82044075-17.8777509 0-24.69819051 3.41022037-3.41138432 7.87994851-5.11591197 12.34851384-5.11591196s8.93945742 1.70569273 12.34851385 5.11591196l42.91708018 42.91708018c-2.93053099-90.80337067-77.70155918-163.77207011-169.20467115-163.77207011-69.72730254 0-133.30246883 43.74372921-158.19859058 108.85227292-3.44514901 9.00815075-13.53958741 13.51979463-22.55006606 10.07464562-9.0093147-3.44514901-13.51979463-13.54075136-10.07464562-22.55006606 14.61190315-38.21216313 40.11229298-70.86831161 73.74412004-94.4348069 34.4223835-24.1218651 74.90725091-36.87089607 117.08034617-36.87089608 111.67219598 0 202.68164665 90.09547947 204.19755918 201.41372986l37.23881245-37.23881245c6.81927566-6.81927566 17.8777509-6.81927566 24.6981905 0 6.82044075 6.82044075 6.82044075 17.8777509 0 24.69819051L724.91696469 445.06611143z"  horiz-adv-x="1024" />

    
    <glyph glyph-name="right-circle" unicode="&#58899;" d="M511.46 834c-248.099-0.3-449.76-202.409-449.459-450.54 0.3-248.099 202.409-449.76 450.54-449.459 248.099 0.3 449.76 202.409 449.459 450.54-0.3 248.099-202.409 449.76-450.54 449.459v0zM791.12 536.43l-339.030-339.81c-9.72-9.75-25.47-9.75-35.22-0.030l-184.2 183.75c-9.72 9.72-9.75 25.47-0.030 35.19 9.72 9.75 25.47 9.75 35.22 0.030l166.56-166.17 321.449 322.2c9.72 9.72 25.47 9.75 35.22 0.030 9.72-9.69 9.75-25.44 0.030-35.19v0zM791.12 536.43z"  horiz-adv-x="1024" />

    
    <glyph glyph-name="rar" unicode="&#58940;" d="M895.469672 584.309254 667.839301 584.309254 667.839301 811.939625 895.469672 584.309254zM639.627772 556.096702 639.627772 811.939625l-511.725754 0.060375 0-447.784466 767.567653 0L895.469672 556.096702 639.627772 556.096702zM256.852926 167.150296c-7.737218 6.729262-19.340487 10.100032-34.8139 10.100032l-73.92364 0 0-86.387509 73.92364 0c15.47239 0 27.076682 3.438309 34.8139 10.314926 7.736195 6.876618 11.604292 18.052145 11.604292 33.523511C268.457218 149.595478 264.588097 160.414895 256.852926 167.150296zM511.109724 154.041744l-39.971363-112.604614 79.510892 0-38.680974 112.604614L511.109724 154.041744zM860.396875 167.150296c-7.736195 6.729262-19.340487 10.100032-34.812877 10.100032l-73.92364 0 0-86.387509 73.92364 0c15.471366 0 27.076682 3.438309 34.812877 10.314926 7.737218 6.876618 11.604292 18.052145 11.604292 33.523511C872.001167 149.595478 868.13307 160.414895 860.396875 167.150296zM0.618077 300.254803l0-447.724091 1022.763846 0L1023.381923 300.254803 0.618077 300.254803zM277.481755-77.184525c-3.726881 9.737782-6.01704 21.341051-6.876618 34.812877-0.859577 13.464663-2.148943 26.358321-3.868097 38.681998-2.296299 16.043395-7.16519 27.78788-14.611789 35.241642-7.454786 7.447623-19.630083 11.174504-36.532031 11.174504l-67.476811 0L148.116409-77.184525 80.639598-77.184525 80.639598 229.684538l165.468612 0c13.752212 0 26.143427-2.222621 37.175691-6.661723 11.027148-4.446265 20.482497-10.529821 28.367071-18.267039 7.876388-7.736195 13.893428-16.693194 18.051121-26.861788 4.15053-10.172687 6.231935-21.132296 6.231935-32.878828 0-18.051121-3.800559-33.670867-11.389398-46.845934-7.594979-13.183254-19.98517-23.209608-37.176714-30.085202l0-0.859577c8.3072-2.296299 15.183817-5.802146 20.629853-10.529821 5.438872-4.727675 9.885138-10.314926 13.32447-16.761756 3.437286-6.446829 5.943362-13.538341 7.521301-21.274536 1.570775-7.737218 2.64627-15.47239 3.223415-23.208585 0.281409-4.876054 0.571005-10.603499 0.859577-17.192567 0.281409-6.594185 0.785899-13.323447 1.50426-20.199041 0.711198-6.877641 1.859347-13.398148 3.438309-19.555381 1.570775-6.164397 3.935636-11.389398 7.091512-15.687284L277.481755-77.184525zM591.480192-77.184525l-23.209608 68.336388-114.753557 0-24.069185-68.336388-67.905576 0 116.0419 306.869063 69.195965 0L661.535735-77.184525 591.480192-77.184525zM881.026728-77.184525c-3.727904 9.737782-6.01704 21.341051-6.876618 34.812877-0.860601 13.464663-2.149966 26.358321-3.868097 38.681998-2.296299 16.043395-7.16519 27.78788-14.612813 35.241642-7.453762 7.447623-19.629059 11.174504-36.532031 11.174504l-67.475787 0L751.661382-77.184525l-67.476811 0L684.184571 229.684538l165.468612 0c13.753235 0 26.143427-2.222621 37.176714-6.661723 11.026124-4.446265 20.482497-10.529821 28.366048-18.267039 7.877411-7.736195 13.894452-16.693194 18.052145-26.861788 4.15053-10.172687 6.231935-21.132296 6.231935-32.878828 0-18.051121-3.801583-33.670867-11.389398-46.845934-7.596002-13.183254-19.98517-23.209608-37.176714-30.085202l0-0.859577c8.306176-2.296299 15.183817-5.802146 20.629853-10.529821 5.438872-4.727675 9.884115-10.314926 13.323447-16.761756s5.943362-13.538341 7.521301-21.274536c1.571798-7.737218 2.64627-15.47239 3.223415-23.208585 0.281409-4.876054 0.571005-10.603499 0.859577-17.192567 0.281409-6.594185 0.785899-13.323447 1.505283-20.199041 0.711198-6.877641 1.859347-13.398148 3.437286-19.555381 1.571798-6.164397 3.935636-11.389398 7.091512-15.687284L881.026728-77.184525z"  horiz-adv-x="1024" />

    
    <glyph glyph-name="meeting" unicode="&#58943;" d="M959.397656 184.770606c0-32.334429 0-64.667835 0-97.002264-7.718799-10.07138-13.878079-22.103414-23.512507-29.766954-15.603373-12.412704-32.677237-23.605627-50.561559-32.406061-56.716746-27.90863-117.597325-42.75885-179.672102-52.387138-133.014456-20.632923-266.081101-20.237927-398.883733 2.170432-58.362222 9.848299-115.496477 24.526603-168.919201 50.737568-28.41926 13.94357-73.247234 56.124252-73.247234 61.652152 0 32.334429 0 64.667835 0 97.002264 0 7.689123 21.13025 33.342386 35.095309 44.102451 24.826432 19.129686 53.072753 31.743982 82.238003 42.538839 20.443611 7.567349 27.087938 31.17707 12.912078 47.922453-27.180036 32.108279-42.329061 68.980048-43.915186 110.945835-2.335185 61.780065 34.672684 102.868879 86.922698 108.004853 49.681516 4.88424 93.487208-24.345478 103.562681-73.195046 11.07422-53.692876-4.397147-101.097536-38.057781-143.057183-6.489808-8.089235-58.783825-86.331227-61.968353-198.677968 8.225335 18.954701 15.09172 36.779671 23.531949 53.824883 19.046798 38.461987 44.021609 72.54013 81.935104 94.183056 27.380604 15.629979 56.232722 28.741601 84.757382 42.284035 17.066701 8.102538 25.999141 20.516266 22.571065 38.173414-1.596358 8.223289-6.28924 16.483416-11.484565 23.267936-40.738843 53.195549-60.057841 111.906719-45.172829 178.735777 11.476379 51.52449 55.010895 85.935208 108.424408 87.931678 56.359612 2.106987 102.859669-27.699875 118.02302-79.042217 20.587897-69.710688 0.379647-131.363863-42.75578-186.871061-7.572466-9.743922-11.344373-19.813255-11.803837-31.530111-0.638543-16.295128 5.613858-24.89704 20.72502-30.90794 17.750269-7.060813 35.635615-13.914918 52.875255-22.094204 34.644031-16.436344 65.799612-37.543058 88.654132-69.323878 17.235546-23.966854 31.348985-49.5403 41.934065-77.079516 2.653433-6.9022 5.298679-13.808494 8.651031-22.546505 6.973832 15.734356 4.329609 118.456902-61.458747 198.684108-31.274284 38.138622-45.815465 81.939197-40.545438 131.564431 5.480828 51.613518 44.474934 86.569658 96.083335 86.275969 51.65752-0.293689 90.623997-35.665291 95.694479-86.947258 4.833075-48.8905-9.992585-91.784426-40.511669-129.507586-16.803711-20.770046 7.768941-48.866964 21.74321-55.150064C947.586656 225.810301 953.794032 193.9118 959.397656 184.770606z"  horiz-adv-x="1024" />

    
    <glyph glyph-name="cuowu" unicode="&#58956;" d="M548.381094 513.184357c29.120224 24.62791 57.468876 49.506531 91.982948 76.774571 35.259038 27.928073 72.876798 46.803979 109.22668 74.892711 20.678972 15.927761 55.19202 53.4217 86.21764 23.045879 35.764552-35.018561 57.081043-100.672864 92.034113-136.317689 3.038196-14.808264 12.171204-23.585161 17.257036-36.485983-2.796696-13.627369-11.42419-16.235776-23.023366-26.880207-25.950022-23.826662-58.999742-53.448306-88.174202-78.70862-8.001231-6.957459-17.962094-10.779507-24.938995-17.289782-3.541663-3.334955-2.795673-9.657964-5.698792-13.440104-5.406127-6.862291-20.050662-15.44783-30.651091-24.945135-9.508561-8.485255-20.293185-22.465664-26.89658-26.913976-2.662643-1.781576-8.867972 0.227174-11.480472-1.874697-8.731872-7.211239-7.296173-11.599176-19.146059-19.22383-6.976902-4.448312-14.647605-9.912767-21.065781-17.288758 1.838881-10.257621 13.500479-10.765181 15.288195-21.091364 57.547671-39.059598 110.00951-83.068927 164.816766-124.797307 24.02109-30.363542 58.348919-50.359968 84.286662-78.694293 2.344395-5.403057 2.208295-13.246699 1.969864-21.143553-40.4779-24.653493-79.172177-61.486376-124.577297-74.893734-10.601452-13.033851-29.136597-18.167778-38.269605-32.656771-9.638521 0-19.201318 0-28.786627 0C676.767136-16.044026 610.750583 58.595928 536.836153 125.403496c-39.693024-19.770276-57.667398-61.286832-97.694019-80.656995-20.10592-25.560142-46.097898-45.515636-72.889077-67.234287-27.190269-22.11774-49.346895-47.797609-82.315774-65.233724-19.799952-22.99983-47.90915-37.273928-82.396615-21.132296-9.080819 4.189416-18.987447 15.182794-30.652114 21.132296-16.870226 8.483208-32.277124 12.859889-47.962362 24.972764-4.872984 3.78828-7.988951 9.150404-13.449313 13.406335-16.538675 12.95301-33.288151 33.965579-45.99045 49.919946 2.557242 6.869455 4.394077 6.976902 1.970888 15.314801 22.449291 19.157315 34.326806 48.840358 59.385529 65.301262 3.674693 3.400446-1.530866 4.923126 0 11.526521 11.850909 7.310499 18.082844 20.276812 32.544207 24.985044 65.005526 80.775698 142.394081 149.21237 216.614479 220.742497-69.399603 67.11456-174.698834 141.940756-243.37803 207.408817-8.947789 8.451486-29.640064 16.108886-30.652114 28.755927-1.091868 12.739139 36.483936 49.279357 44.020586 57.610092 26.337855 28.913517 66.602907 46.842865 90.144066 74.865081 45.806255 27.166733 94.460372-16.014742 128.333854-40.328497 43.24799-30.982642 81.996502-71.783907 124.56604-107.49627C508.541737 541.179968 525.104971 526.972385 548.381094 513.184357zM266.682293 668.700293c-14.966876-48.298006-45.539172-81.095993-55.57883-134.417409 18.721387 10.711969 15.791661 43.095517 32.543184 55.676044-1.14508 17.85567 11.67797 21.671579 11.55722 38.387285 6.272867 9.917884 18.456351 33.67803 15.286148 40.355103C269.211906 668.700293 267.946077 668.700293 266.682293 668.700293zM310.756091 647.602789c-5.886057-42.142819-32.676214-73.559343-36.45733-111.412462 16.737196 34.512025 32.529881 69.910233 46.044686 107.537202C316.667731 644.547197 316.853973 649.256452 310.756091 647.602789zM188.146613 553.472945c19.094894 10.305717 15.340383 43.542702 32.543184 55.742559 0.373507 13.032828 8.121981 18.71627 9.507538 30.688953C204.57784 623.229682 196.588889 581.346783 188.146613 553.472945zM784.117073 636.029196c-0.533143-2.728134-3.196809-3.234671-3.888564-5.716188-8.68173-12.386098-10.705829-31.522947-19.148106-44.169989-9.587356-74.232678-42.183751-135.585001-42.183751-213.091236 8.749268 0.853437 10.387581 8.776897 17.310248 11.505032 0.574075 29.29521 11.345396 49.319266 11.425214 80.589456 2.608407 5.169743 5.882987 9.564843 7.749498 15.407921 6.644327 57.509808 34.485419 107.942431 32.516578 155.475004C786.644639 636.029196 785.316387 636.029196 784.117073 636.029196zM812.851511 634.154499c-17.389042-44.068681-25.697265-97.203856-38.321794-145.941883 23.088858 31.902594 24.340361 85.563748 42.104957 122.910331 5.457292 1.967818 8.068769 1.967818 13.44829 0C826.912761 621.32224 822.67832 630.565764 812.851511 634.154499zM339.489506 626.437747c-9.134031-11.885701-11.344373-30.883381-23.00904-40.294728-3.114944-18.583241-14.859429-36.251645-22.954805-53.795207-7.616468-16.522302-22.290679-36.95875-11.505032-53.701063 12.43624 0.353041 9.826809 32.349779 22.982434 38.386262 5.831822 17.830087 14.56574 36.186154 23.00904 53.795207 8.309246 17.443277 20.744463 36.065404 17.257036 53.702086C342.791715 624.663334 342.606497 626.944284 339.489506 626.437747zM245.615489 507.408817c-7.163143 13.974269 1.704828 33.837666 11.478426 42.261523 0.572028 26.560936 19.786649 43.690058 19.160385 65.261353-19.34765-28.021194-32.156374-62.440098-44.087101-97.898681C234.697835 513.05849 242.128061 504.040093 245.615489 507.408817zM726.568379 591.933909c-0.64059-8.331759 10.597359-4.770653 9.638521-13.480013-12.249999-50.714032-28.480658-86.339414-38.375006-140.133597-5.192256-11.30651-16.166191-55.282071-21.064758-76.767408-3.170203-13.913894 2.291183-24.946159-11.478426-24.979928-5.325285-0.060375-8.5487 2.994194-11.556197 7.630794 16.511046 85.917812 43.220361 161.611771 65.164139 241.940284-23.034623-10.80509-41.86141-25.867134-61.356416-40.287565-0.239454-6.104021 5.140067-6.417153 3.88754-13.507642-18.854417-46.744627-33.68724-105.721857-47.907103-157.388587-5.753027-20.912285-23.275099-48.739051-9.562796-67.209728 14.9679 81.450057 44.342927 156.976194 70.867024 232.289484 4.738931 3.808746 16.721847 2.575662 17.23043-3.848655-22.517853-86.144986-66.525136-161.03872-67.032696-262.977413-25.576515-31.076786-30.463826-123.478266-9.531074-155.508773 7.563256 55.216579 3.302209 115.541503 19.091824 165.106362-1.89107 5.149277-3.927449 10.131755-3.858888 17.248849 17.124006 22.598694 46.736441 32.576953 65.217351 53.768601 1.251503 7.664563-5.085832 7.756661-3.886517 15.32094 14.219863 81.94943 39.146579 162.91137 57.535391 234.222509C737.486032 603.999712 735.261365 594.754141 726.568379 591.933909zM795.595498 446.009422c-1.518586-7.27673-16.191774-11.472286-21.065781-3.874237-8.253988 9.083889 9.387811 22.75833-1.916653 28.821419-5.51255-18.844184-10.385535-38.225603-11.532661-61.451584 21.253046 10.131755 31.076786 31.582299 49.801243 44.202735 6.071276 48.932456 13.687744 96.371908 36.455283 128.561028-3.353374 8.770757-5.456269 18.875906-15.33936 21.104667C821.665247 550.370281 797.29828 501.305819 795.595498 446.009422zM364.430548 601.524335c-19.920702-46.650483-45.046962-87.992053-59.426461-140.134621 5.884011-5.65479 8.5487-14.485923 19.200294-15.380292 9.454326 57.644885 43.967374 90.314958 51.703569 149.765979C371.206882 596.821219 371.779933 603.179021 364.430548 601.524335zM165.11199 572.67017c10.279111 0.379647 16.244986 24.091698 11.490705 26.88737C174.513104 589.031812 159.358963 585.255813 165.11199 572.67017zM350.967932 470.95558c1.225921-5.243421-2.462075-15.22168 1.984191-17.248849 18.442024 37.107129 40.013319 71.178109 51.703569 115.15367-3.434216 1.714038-5.593392 4.635577-9.587356 5.750981C378.957403 541.49924 369.503077 501.645556 350.967932 470.95558zM839.616084 476.678932c16.108886 15.341407 34.619472 28.120454 47.945989 46.104037-13.124925 12.453636-15.989159 35.204803-32.526811 44.169989C850.134649 537.144048 827.499116 500.158692 839.616084 476.678932zM419.995051 547.696382c-12.30321-38.799678-33.874505-68.441788-45.991474-107.469664-11.397584-0.565888-11.357675-21.350261-7.749498-30.721699 16.058744 19.443841 20.62576 48.01148 32.676214 71.051219 10.279111 19.823488 25.379017 44.449351 28.734438 67.141166C425.081906 547.696382 422.537967 547.696382 419.995051 547.696382zM414.216441 447.884119c11.876492 27.173896 29.134551 48.872081 38.322817 78.713736-2.425236 0.12075-2.610454 2.515287-5.698792 1.966795C437.065845 501.87273 415.121044 477.092347 414.216441 447.884119zM467.957413 509.343889c-18.58938-46.684252-49.53416-81.002872-59.495022-136.291083 5.646604-1.461281 4.927219-9.118682 13.43601-7.68503 6.590092 29.008684 18.3356 55.101969 28.800953 80.641645 8.682753 21.418822 24.287149 39.948851 24.860201 63.334467C472.963427 509.343889 470.433814 509.343889 467.957413 509.343889zM600.070336 495.896622c-7.16212-2.342348-5.697769-13.467733-7.588839-21.098527-11.745509-9.084912-20.319791-26.621311-26.925233-42.288129-5.939269-14.334473-13.554714-28.2893-19.067264-42.169425-4.394077-10.898211-4.500501-26.405393-9.653871-38.452777-4.807493-11.499915-12.743232-21.924335-7.604188-38.387285-5.52483-3.487428-7.80271-10.031471-19.225877-7.682983-2.598174-7.184633-0.773619-15.761985-1.89107-23.004947-5.593392-37.911448-18.786878-82.048691 0-107.568924 14.777565 3.093455 10.200316 17.768689 11.477402 28.827559 5.432733 45.538149 3.913123 87.892793 24.978904 122.843816 0.772596 12.045337 1.836835 23.705911 9.506515 28.821419 12.19781 51.893904 32.995485 94.976118 51.771107 140.161227C603.957877 495.896622 602.041224 495.896622 600.070336 495.896622zM437.185572 342.294268c22.583344 45.884027 47.25628 89.674369 65.150836 140.133597-4.686742 1.074472-3.994987 7.43125-11.489682 5.783727C472.205157 440.421146 450.700377 395.355765 437.185572 342.294268zM554.078863 474.798095c-16.536628-30.821983-34.618449-59.95858-42.10291-99.837846-14.407128-8.637728-15.670911-30.376844-21.129226-48.045249 5.590322-1.428535 5.019317-9.084912 13.46057-7.623631 15.019065 55.95643 40.451294 101.552907 59.426461 153.573701C559.112506 472.10373 559.539224 476.391383 554.078863 474.798095zM602.041224 428.727827c9.213849 8.738012 11.159154 24.593118 15.286148 38.386262-0.425695 1.461281-1.585101 2.221598-3.807722 1.874697C610.935802 454.335041 603.186304 444.80192 602.041224 428.727827zM460.208938 323.105231c-4.448312-1.266853-5.14109-6.356778-9.508561-7.696286-4.193509-4.323469-6.604418 1.594311-13.514805 0 3.287883-6.797823-6.404873-15.434527 1.957585-15.34857 3.049452 3.275603 1.784646 11.025101 9.587356 9.637498 14.965853-5.061272 4.819772-22.25077 3.809769-32.66905-4.768607-49.985438-5.966898-117.982088-3.809769-161.258731 9.001001 3.149736 13.820774 10.446933 17.257036 19.210527-15.033391 42.36897 4.819772 104.394628 7.66968 147.829883 0.691755 11.751648-10.466376 21.825075-9.573029 34.512025 0.437975 6.54302 9.652847 16.328897 11.476379 24.971741 9.893324 46.13883 35.018561 83.570347 49.799196 120.970142-0.38681 2.134617-2.158153 3.015683-3.808746 3.848655C500.23249 419.956046 471.313857 380.489172 460.208938 323.105231zM343.298252 430.6015c1.14508 6.062066 10.864442 13.374612 5.764284 19.22997C345.961918 445.349389 335.3093 434.163629 343.298252 430.6015zM398.930293 421.036657c5.725398 0.159636 9.268084 12.233626 5.725398 15.375176C403.376559 430.6015 397.346215 429.681548 398.930293 421.036657zM559.806307 288.527714c-15.233959-9.785877-21.517059-52.653197-21.065781-82.522482 0.320295-14.514575 3.048429-34.793434 17.323551-32.633235 5.713119 93.897553 24.233937 171.9707 47.894823 251.538897-0.398066 1.461281-1.597381 2.161223-3.88754 1.848091C580.098469 388.433098 561.135582 339.373753 559.806307 288.527714zM395.068336 292.375346c-3.807722-57.102532-8.628518-124.976386-11.477402-174.671205-1.14508-20.597107 7.031137-43.915186-5.779633-59.550281-6.92369 2.094708-12.249999 5.655813-15.33936 11.499915 1.452071 48.811706 5.886057 100.599186 9.574053 144.047744 1.638313 19.058055 6.964622 40.762379-3.808746 55.669904-15.858176-5.122671-13.062504-24.625864-13.461593-38.387285-1.89107-71.1382-6.27082-127.874389-5.713119-203.526393 17.084097 12.3247 33.382295 25.427112 46.0058 42.195008-3.942799 75.505671 22.716374 169.046091 17.257036 245.754147-0.385786 2.167363-2.158153 3.0208-3.862981 3.8814C407.118789 307.210215 399.624095 301.239224 395.068336 292.375346zM594.372567 296.21786c-10.733459-7.369851-8.630564-17.22122-9.641591-34.543747-1.970888-36.43891-10.837836-79.308277-3.728928-109.403712 3.728928 43.695175 8.176217 99.404987 19.068288 142.040017C597.673753 294.443447 597.407694 296.784772 594.372567 296.21786zM648.032698 257.831598c-7.16519-37.745672-9.958816-82.841753-9.588379-122.850979 0.135076-18.741853-5.752004-42.193984 11.505032-53.788044 0.693802 60.403718 5.832845 114.292046 15.33936 168.947853-3.542686 6.738471-8.3072 12.20702-17.256012 13.414521C648.032698 261.674113 648.032698 259.739041 648.032698 257.831598zM427.664731 240.54898c6.285147-0.919952 8.003278 11.085476 1.837858 11.533684C427.359786 249.793528 427.359786 245.31247 427.664731 240.54898zM676.767136 192.597875c-5.325285-55.483662-21.171182-140.927683 15.287171-145.95621 0.771573 56.643068-3.303232 109.391433 1.968841 180.467211-5.591345 1.461281-5.006014 9.117658-13.44829 7.716752C675.701874 220.525947 678.419775 209.694251 676.767136 192.597875zM416.186306 88.903188c9.692756-1.641383 18.135032 13.420661 24.873504 21.10569-3.435239 2.89391-10.732435 2.039449-13.395078 5.761214-8.176217 39.915082 7.364735 89.920986 0 117.088742C420.68783 186.874523 416.440086 130.538447 416.186306 88.903188zM278.158672 179.096373c3.675716-4.64274 13.075807-3.561106 13.381775-11.472286-6.53688-32.057113-8.680706-76.360132-9.519818-103.680361-0.946558-29.361725-10.892071-76.399017 5.712095-88.35328 4.114714 81.295538 11.930727 136.258337 15.352663 218.882126 6.658653 1.01205 3.807722 11.532661 13.394055 9.596566 7.803733-5.468548 6.339382-19.330254 5.76633-28.827559-2.090615-35.673477-7.229658-74.866105-9.573029-109.403712-1.784646-25.666566-5.965875-53.375651 1.89107-72.958662 16.698311 9.630335 8.574283 32.095999 9.640568 47.998177 4.060479 61.551868 18.588357 129.560798 7.615445 190.105732C312.725956 214.910043 294.271652 198.228105 278.158672 179.096373zM711.281207 204.07016c-2.743484-33.470299-0.561795-72.636321 0-111.350041 0.373507-24.281009-5.192256-54.590316 9.587356-72.945359 6.844895 52.801577-0.585331 123.45166 11.476379 176.605254-4.765537 6.763031-10.412141 12.647041-21.063735 13.467733C711.281207 207.913699 711.281207 206.005232 711.281207 204.07016zM743.823368 182.938887c4.570085-23.679305-0.959861-47.317679-1.917676-72.931033-0.876973-23.38664 2.425236-49.693796 1.917676-71.051219-0.320295-15.82236-12.808724-41.436738 9.562796-44.155662 3.061732 55.414077-10.253528 125.249609 9.66615 174.730557-4.261047 8.617261-10.600429 15.022135-19.228947 19.183921C743.053841 185.995503 741.534232 185.48692 743.823368 182.938887zM249.425258 152.270401c1.836835-51.734268-2.103918-118.54286-1.970888-168.994925 0.053212-10.540054-1.465374-27.882024 9.640568-32.618908 2.037403 70.225411 2.037403 140.834562 17.203824 220.74352-0.200568 2.348488-0.586354 4.616134-3.808746 3.842515C265.030677 166.063545 257.467421 158.886075 249.425258 152.270401zM772.613064 163.783619c-3.860934-61.32674-5.698792-113.260553 3.807722-178.588421 7.696286 1.282203 15.871479 2.093684 21.11797 5.763261C786.140149 39.410983 821.026704 155.484605 772.613064 163.783619zM816.63365 63.943726c0.77055-21.385053-5.432733-45.451168 5.777587-57.643861 13.636578 6.417153 4.381797 24.425296 3.861958 36.500309-1.067308 23.877827 6.871501 55.254441-1.89107 84.495416-1.971911 0-3.862981 0-5.77861 0C813.863561 107.978638 815.939849 85.888528 816.63365 63.943726zM213.02114 110.008878c-1.651616-44.544519-3.941775-88.419795 0-130.523729 1.197268-12.644995-0.400113-45.702901 17.176195-46.077432-7.297197 55.417147 2.103918 134.418432 1.970888 191.995779C219.492528 126.524017 219.544717 114.996472 213.02114 110.008878zM849.254605 25.563604c33.610492 4.120854 22.184255 32.203446 19.147082 59.471486-6.590092 6.800893-10.971889 15.886829-23.019273 17.288758C843.730799 72.9611 845.127611 50.457574 849.254605 25.563604zM178.507068 81.193599c7.297197-36.326347-8.893554-84.36341 11.478426-113.287159-3.861958 40.422641 7.80271 84.526115 3.860934 122.917494C185.804265 90.55685 184.152649 83.885917 178.507068 81.193599zM891.372865 54.338974c5.127787-0.600681 6.350638 2.625804 5.765307 7.696286-3.609201-0.451278-4.248767 2.161223-7.616468 1.908466C887.936603 58.514063 892.183324 58.955108 891.372865 54.338974zM138.213363-12.857451c0.772596 7.043417-0.118704 27.560706-5.698792 34.538631C119.760083 13.796606 119.97293-11.602877 138.213363-12.857451z"  horiz-adv-x="1024" />

    
    <glyph glyph-name="yonghu" unicode="&#58952;" d="M389.342 310.138c-86.205 52.537-136.006 126.345-139.039 227.969-2.125 71.213 22.062 133.003 71.124 184.414 107.644 112.796 279.317 109.819 384.698-4.103 111.677-120.729 80.838-330.059-71.967-408.496 7.454-3.253 14.15-6.217 20.876-9.105 105.52-45.302 178.339-121.9 216.531-230.405 8.683-24.668 12.318-51.148 17.821-76.891 0.946-4.426 0.28-9.513-0.828-14.001-2.765-11.207-10.727-17.054-21.529-16.704-11.462 0.372-19.77 7.342-22.111 18.478-4.399 20.922-6.815 42.517-13.572 62.646-42.895 127.757-128.903 208.658-262.427 232.498-114.382 20.422-213.832-12.753-296.164-95.165-53.379-53.43-83.362-118.647-93.232-193.373-1.864-14.112-7.506-22.128-17.932-24.679-15.762-3.858-29.198 8.044-27.625 24.684 5.659 59.873 25.013 115.066 57.612 165.422 44.184 68.252 104.113 117.66 179.243 148.5 4.821 1.979 9.557 4.164 14.326 6.267 0.9 0.397 1.772 0.86 4.194 2.044zM511.656 327.365c118.209-0.029 213.411 95.253 215.198 211.126 1.946 126.192-98.158 217.614-209.706 220.511-116.757 3.033-218.895-90.104-220.823-212.384-1.89-119.852 93.887-219.218 215.33-219.253z"  horiz-adv-x="1024" />

    
    <glyph glyph-name="icon402" unicode="&#58996;" d="M963.674112 458.44452693c-1.18110435-108.87131591-40.08036125-202.01399182-118.66967609-277.53330915-60.27127467-57.91926045-132.59971698-92.16837405-215.80713529-101.99003591-97.6748544-11.53287965-186.72662755 11.72657493-266.85822293 68.73852586-4.41567005 3.13844622-6.75894613 2.83698062-10.46100196-0.89565866-22.84730595-23.04682667-45.83150933-45.9669504-69.08513848-68.60599752-4.84675129-4.71567929-4.36906667-7.4317824 0.19806435-11.86055964 14.95094613-14.47908693 29.52323982-29.33973902 44.16835129-44.12320426 16.57623893-16.73206898 17.2490752-36.14237582 1.3500416-53.4875705-9.03231715-9.85224533-18.57144605-19.27923485-28.36106809-28.38436977-13.91402098-12.94263182-34.71223467-11.39452587-50.1219328 3.65108337-15.06891093 14.71064747-29.94412658 29.62518471-44.57613085 44.76691343-4.18265315 4.32828871-6.68030293 4.84529493-11.09597297 0.16893724-13.43051093-14.22568107-27.34890098-27.99552285-41.11291733-41.90517475-4.00352142-4.05303751-8.17743645-7.95170133-13.08389832-10.92849209-12.38921671-7.5104256-26.71684267-6.44582969-37.71960888 3.82875875-11.76589653 10.9838336-23.1079936 22.44826453-34.11949796 34.18940302-8.17743645 8.72065707-9.70369707 19.20932978-5.17297494 30.38977138 2.74086115 6.75166435 6.9074944 12.53485227 12.06299307 17.67724374 14.38005475 14.352384 28.57806507 28.88681245 43.12705707 43.057152 4.17974045 4.06760107 4.25255822 6.70943005 0.03495253 10.80470186-14.04218027 13.63440071-27.76687502 27.590656-41.53526044 41.50030792-3.13407715 3.16029155-6.17640391 6.45748053-8.87648711 9.9876864-11.21685049 14.6669568-10.19303253 29.7664512 2.86028231 42.73384106 9.84496355 9.77214578 19.73507413 19.49768818 29.7271296 29.1110912 17.31606755 16.64905671 34.34377671 16.28642418 51.26517191-0.80682098 15.16066133-15.31794773 30.53395058-30.43200569 45.58392889-45.86354915 3.74429013-3.83458418 6.17640391-4.29479253 10.19448889-0.20534613 22.93323093 23.31625245 46.03539911 46.46356765 69.31669902 69.4317511 3.83458418 3.78943715 3.80982613 6.24339627 0.72526506 10.52362525-35.80013227 49.72726045-58.50471538 104.86342542-67.5443143 165.53519787-10.90082133 73.14254507-2.43065742 144.06269155 28.38436977 211.23272248 54.6045952 119.02211413 146.13508551 195.18077155 274.8448768 219.7815296 141.02764658 26.95422862 261.45660018-15.77961245 357.65179733-122.67611022 52.41423645-58.2483968 81.06511929-127.89423218 90.55181938-205.48594346C963.23137991 486.79540053 964.06587165 472.68768427 963.674112 458.44452693zM583.10073458 183.32439893000003c141.42523165-1.77238471 272.03119787 112.70298738 271.97731271 270.64620374-0.04951609 157.03881955-129.21660302 273.99727787-273.38269582 273.53561315-143.3141248-0.45729565-268.42526151-116.95408925-269.11557405-271.62924373C311.88363947 299.41923840000004 438.60987449 182.05300052999996 583.10073458 183.32439893000003z"  horiz-adv-x="1024" />

    
    <glyph glyph-name="xiajiantou1" unicode="&#59019;" d="M135.977 533.057c17.335 0 34.673-6.522 47.908-19.757l327.328-327.329 327.329 327.329c26.469 26.468 69.341 26.468 95.813 0 26.469-26.469 26.469-69.341 0-95.813l-375.234-375.234c-26.472-26.468-69.344-26.468-95.813 0l-375.234 375.234c-26.469 26.472-26.469 69.344 0 95.813 13.235 13.236 30.568 19.757 47.904 19.757z"  horiz-adv-x="1024" />

    
    <glyph glyph-name="iconfontwenjian" unicode="&#58955;" d="M815.104 742.368q27.648-25.6 44.032-42.496t25.088-28.672 10.752-19.968 2.048-14.336l0-16.384-151.552 0q-10.24 0-17.92 7.68t-12.8 17.92-7.68 20.992-2.56 16.896l0 126.976 3.072 0q8.192 0 16.896-2.56t19.968-9.728 28.16-20.48 42.496-35.84zM640 682.976q0-20.48 6.144-42.496t19.456-40.96 33.792-31.232 48.128-12.288l149.504 0 0-577.536q0-29.696-11.776-53.248t-31.232-39.936-43.008-25.6-46.08-9.216l-503.808 0q-19.456 0-42.496 11.264t-43.008 29.696-33.28 41.984-13.312 49.152l0 696.32q0 21.504 9.728 44.544t26.624 42.496 38.4 32.256 45.056 12.8l391.168 0 0-128zM704.512 44q26.624 0 45.056 18.944t18.432 45.568-18.432 45.056-45.056 18.432l-384 0q-26.624 0-45.056-18.432t-18.432-45.056 18.432-45.568 45.056-18.944l384 0zM768 363.488q0 26.624-18.432 45.568t-45.056 18.944l-384 0q-26.624 0-45.056-18.944t-18.432-45.568 18.432-45.056 45.056-18.432l384 0q26.624 0 45.056 18.432t18.432 45.056z"  horiz-adv-x="1024" />

    
    <glyph glyph-name="fasongxinxi" unicode="&#59091;" d="M996.7616 629.248c-7.4752 4.7104-17.408 2.3552-22.016-5.12-22.6304-36.1472-22.8352-76.1856-22.8352-79.0528L951.9104 141.312c0-32.9728-26.8288-59.904-59.904-59.904L265.5232 81.408c-32.9728 0-59.904 26.8288-59.904 59.904L205.6192 607.0272c0 32.9728 26.8288 59.904 59.904 59.904L891.904 666.9312c15.5648 0 26.4192-3.3792 29.7984-9.216 1.3312-2.2528 3.9936-6.9632-5.3248-16.384L585.5232 304.3328l-307.2 314.6752c-6.144 6.3488-16.2816 6.4512-22.6304 0.3072-6.3488-6.144-6.4512-16.2816-0.3072-22.6304l318.6688-326.4512c2.9696-3.072 7.168-4.8128 11.4688-4.8128 0 0 0 0 0 0 4.3008 0 8.3968 1.7408 11.4688 4.8128l191.7952 195.1744c48.0256 48.8448 86.4256 87.9616 110.8992 112.8448 0 0 0.1024 0.1024 0.1024 0.1024l27.7504 28.2624c0.1024 0.1024 0.2048 0.2048 0.3072 0.3072 0.9216 0.9216 1.4336 1.4336 1.536 1.536l0 0 10.24 10.3424c16.6912 16.9984 20.48 37.0688 10.1376 54.784-9.6256 16.6912-28.9792 25.1904-57.5488 25.1904L265.5232 698.7776c-50.688 0-91.8528-41.2672-91.8528-91.8528l0-36.2496L33.1776 570.6752c-8.8064 0-15.9744-7.168-15.9744-15.9744 0-8.8064 7.168-15.9744 15.9744-15.9744l140.4928 0 0-49.8688L69.12 488.8576c-8.8064 0-15.9744-7.168-15.9744-15.9744s7.168-15.9744 15.9744-15.9744l104.5504 0L173.6704 141.312c0-50.688 41.2672-91.8528 91.8528-91.8528L891.904 49.4592c50.688 0 91.8528 41.2672 91.8528 91.8528L983.7568 545.0752c0 0 0 0.1024 0 0.1024 0 0.3072-0.1024 32.9728 18.0224 61.952C1006.4896 614.7072 1004.2368 624.5376 996.7616 629.248z"  horiz-adv-x="1024" />

    
    <glyph glyph-name="geren" unicode="&#59318;" d="M123.570875 781.006102 123.570875 781.006102 123.570875 781.006102ZM612.508623 255.206818c30.827099 12.607132 58.096163 30.646997 81.684394 54.236252 23.590278 23.648606 42.047652 51.217499 55.261605 82.648348 13.211906 31.552623 19.847024 64.553225 19.847024 99.17986 0 70.523193-25.096585 130.85221-75.107605 180.868347-50.013067 50.071396-110.341061 75.107605-180.864254 75.107605-70.464865 0-130.792858-25.037233-180.869371-75.107605-50.009997-50.016137-75.04723-110.345154-75.04723-180.868347 0-26.421766 3.921309-52.064796 11.825326-76.979232 7.902994-24.856108 18.882046-47.539736 33.059953-67.991534 14.176884-20.446681 31.127951-38.72907 51.03842-54.778604 19.789719-16.10377 41.383526-28.834722 64.673975-38.246069-54.117548-13.879102-102.983489-38.128389-146.419767-72.759117-43.376926-34.627658-77.945233-77.097936-103.404068-127.4753-25.51921-50.433646-38.248116-103.94642-38.248116-160.592558 0-12.612249 0.905626-25.820062 2.835581-39.698141l759.356644 0c0.606821 6.332219 1.087774 12.606109 1.447978 18.881023 0.305969 6.27389 0.484024 12.912078 0.484024 19.851117 0 86.209454-26.422789 163.065889-79.392188 230.456742C761.820254 189.328411 694.434517 233.728644 612.566952 255.082998L612.508623 255.206818zM686.499801 256.811362"  horiz-adv-x="1024" />

    
    <glyph glyph-name="jinxingzhong" unicode="&#59499;" d="M512 748C264.6 748 64 547.4 64 300c0-247.4 200.6-448 448-448 247.4 0 448 200.6 448 448C960 547.4 759.4 748 512 748zM320 236c-35.346 0-64 28.653-64 64s28.654 64 64 64c35.346 0 64-28.653 64-64S355.346 236 320 236zM512 236c-35.346 0-64 28.653-64 64s28.654 64 64 64c35.347 0 64-28.653 64-64S547.347 236 512 236zM704 236c-35.347 0-64 28.653-64 64s28.653 64 64 64 64-28.653 64-64S739.347 236 704 236z"  horiz-adv-x="1024" />

    
    <glyph glyph-name="tuandui1" unicode="&#58942;" d="M774.4 153.6c0 44.8-12.8 89.6-38.4 121.6C691.2 326.4 640 352 576 352c-38.4 0-76.8 0-115.2 0-44.8 0-83.2-12.8-121.6-38.4-44.8-32-70.4-76.8-76.8-128-6.4-57.6 0-121.6-6.4-185.6 6.4 0 19.2-6.4 25.6-6.4 76.8-19.2 147.2-38.4 224-38.4 44.8 0 96 0 140.8 6.4 38.4 6.4 76.8 19.2 115.2 32 6.4 0 6.4 6.4 6.4 12.8C774.4 57.6 774.4 108.8 774.4 153.6zM358.4 364.8c12.8 6.4 19.2 6.4 32 12.8-38.4 38.4-57.6 76.8-57.6 128-44.8 0-89.6 0-134.4 0C172.8 505.6 147.2 499.2 128 492.8 57.6 467.2 0 396.8 0 320c0-51.2 0-102.4 0-160 0-6.4 0-6.4 6.4-12.8 51.2-12.8 102.4-25.6 153.6-32 19.2 0 44.8-6.4 64-6.4 0 12.8 0 25.6 0 38.4 0 19.2 0 38.4 6.4 57.6C249.6 281.6 294.4 332.8 358.4 364.8zM1024 307.2c0 25.6-6.4 57.6-19.2 83.2-38.4 76.8-96 115.2-179.2 115.2-121.6 0 0 0-121.6 0 0-51.2-19.2-96-57.6-128 6.4 0 12.8-6.4 12.8-6.4 32-12.8 64-32 89.6-57.6 38.4-44.8 57.6-96 57.6-153.6 0-12.8 0-32 0-44.8 32 6.4 57.6 6.4 89.6 12.8 38.4 6.4 83.2 19.2 121.6 38.4 6.4 0 6.4 6.4 6.4 12.8C1024 211.2 1024 262.4 1024 307.2zM518.4 358.4c83.2 0 153.6 70.4 147.2 153.6 0 83.2-70.4 147.2-147.2 147.2-83.2 0-153.6-64-153.6-147.2C371.2 428.8 435.2 358.4 518.4 358.4zM704 524.8C723.2 518.4 742.4 512 768 512c83.2 0 153.6 70.4 147.2 153.6 0 83.2-70.4 147.2-147.2 147.2-83.2 0-153.6-64-153.6-147.2C665.6 640 697.6 588.8 704 524.8zM256 512c25.6 0 57.6 6.4 76.8 19.2 6.4 51.2 32 96 70.4 121.6 0 0 0 6.4 0 6.4 0 83.2-70.4 147.2-147.2 147.2-83.2 0-153.6-64-153.6-147.2C102.4 582.4 172.8 512 256 512z"  horiz-adv-x="1024" />

    
    <glyph glyph-name="arrow-left" unicode="&#58894;" d="M340.154 382.061l421.050 421.050c9.076 9.076 9.076 23.831 0 32.908-9.076 9.076-23.831 9.076-32.908 0l-437.481-437.481c-9.076-9.076-9.076-23.831 0-32.908l437.481-437.481c9.076-9.076 23.831-9.076 32.908 0 9.076 9.076 9.076 23.831 0 32.908l-421.050 421.004z"  horiz-adv-x="1024" />

    
    <glyph glyph-name="iconsb" unicode="&#59028;" d="M924.973 711.047l-70.417 58.47-338.812-295.893-302.694 307.81-118.132-118.148 321.504-276.407-315.56-275.586 118.131-118.154 300.258 305.334 341.294-293.423 58.483 58.483-315.408 320.737z"  horiz-adv-x="1024" />

    
    <glyph glyph-name="htmal5icon08" unicode="&#58974;" d="M502.9986016 543.7175195699999l139.43887269-139.43887271c0 4.49738777 0 4.49738777 0 8.99609858 0 76.46750448-58.47398175 134.94148623-134.94148622 134.94148621C507.49731367 543.7175195699999 507.49731367 543.7175195699999 502.9986016 543.7175195699999zM309.58313492 507.73312273l67.47008031-67.47140592c0-13.49481065 0-22.49091051 0-31.48700908 0-76.46618016 58.47398175-134.94016191 134.94148622-134.94016191 8.99609856 0 17.99219843 0 31.48568476 4.4987121l67.47008032-67.47140592c-31.48568476-17.99219843-62.97269383-26.98829699-98.95708939-26.98829699-125.94538766 0-224.90115274 98.95708939-224.90115272 224.90115272C287.09354873 444.7604289 296.08964859 476.24611365 309.58313492 507.73312273zM62.1923973 755.12386035l103.45447715-103.45447715 17.99219842-17.99219841c-76.46618016-58.47398175-134.94148623-134.94016191-166.42717098-224.90115274 76.46618016-197.91285445 269.88164684-337.35172845 494.78412387-337.35172843 67.47008031 0 134.94148623 13.49481065 197.91285445 35.98439683l17.99219842-17.99219841 130.44277414-130.44277415 58.47398175 58.47398175-796.15145677 796.15145677L62.1923973 755.12386035zM511.99470145 633.67718479c125.94538766 0 224.90115274-98.95708939 224.90115274-224.90115274 0-26.98829699-4.49871209-58.47398175-17.99219844-80.96489225l130.44277415-130.44277414c67.47008031 58.47530606 121.44667558 130.44277414 152.93368465 211.40766639-76.46618016 197.91418005-269.88164684 337.35305277-494.78412388 337.35305276-62.97269383 0-121.44667558-13.49348633-179.92198165-31.48568476l98.95708939-98.95708937C453.52071971 629.1797983 485.00640447 633.67718479 511.99470145 633.67718479z"  horiz-adv-x="1024" />

    
    <glyph glyph-name="htmal5icon09" unicode="&#58975;" d="M511.18265443 543.29361266c-76.34033292 0-134.71893438-58.37860276-134.71893438-134.71893438s58.37860276-134.71893438 134.71893438-134.71893439 134.71893438 58.37727844 134.71893438 134.71893439S587.52298735 543.29361266 511.18265443 543.29361266zM511.18265443 184.04311881c-125.73740714 0-224.53155817 98.79415103-224.53155817 224.53155817 0 125.73740714 98.79415103 224.53155817 224.53155817 224.53155818s224.53155817-98.79415103 224.53155816-224.53155818C735.71421259 282.83726982999997 636.92006286 184.04311881 511.18265443 184.04311881zM511.18265443 745.37267705c-224.53155817 0-417.62909531-139.20969799-493.96942823-336.79800007 76.34033292-197.58830076 269.43787006-336.79800005 493.96942823-336.79800006s417.62909531 139.20969799 493.96942823 336.79800006C928.81174973 606.16297903 735.71421259 745.37267705 511.18265443 745.37267705z"  horiz-adv-x="1024" />

    
    <glyph glyph-name="jian" unicode="&#59423;" d="M511.69710187 860.19158293c-262.9935136 0-476.19158293-213.19806933-476.19158294-476.19158293s213.19806933-476.19158293 476.19158294-476.19158293 476.19158293 213.19806933 476.19158293 476.19158293S774.6906144 860.19158293 511.69710187 860.19158293zM819.00986987 76.68832320000001c-39.92695147-39.92695147-86.4096128-71.26904747-138.15670614-93.1563392-53.55357013-22.65136-110.46576747-34.1364032-169.15497066-34.1364032-58.6892032 0-115.60140053 11.4850432-169.15497067 34.1364032-51.74709333 21.88729173-98.22975467 53.22938667-138.15670613 93.1563392s-71.26904747 86.4096128-93.1563392 138.15670613c-22.65136 53.55357013-34.1364032 110.46576747-34.1364032 169.15497067 0 58.6892032 11.4850432 115.60140053 34.1364032 169.15497067 21.88729173 51.74709333 53.22938667 98.22975467 93.1563392 138.15670613s86.4096128 71.26904747 138.15670613 93.1563392C396.09570133 807.119376 453.00789867 818.6044191999999 511.69710187 818.6044191999999c58.6892032 0 115.60140053-11.4850432 169.15497066-34.1364032 51.74709333-21.88729173 98.22975467-53.22938667 138.15670614-93.1563392s71.26904747-86.4096128 93.1563392-138.15670613c22.65136-53.55357013 34.1364032-110.46576747 34.1364032-169.15497067 0-58.6892032-11.4850432-115.60140053-34.1364032-169.15497067C890.27891627 163.097936 858.93682133 116.61527466999996 819.00986987 76.68832320000001zM733.53351253 404.79358187L289.8617824 404.79358187c-11.483952 0-20.79358187-9.30963093-20.79358187-20.79358187s9.30963093-20.79358187 20.79358187-20.79358187l443.67173013 0c11.483952 0 20.79358187 9.30963093 20.79358187 20.79358187S745.01746347 404.79358187 733.53351253 404.79358187z"  horiz-adv-x="1024" />

    
    <glyph glyph-name="lingdang" unicode="&#58947;" d="M931.401022 155.291065l-90.050945 79.817883c0 0-26.605961 20.466124-26.605961 55.94108 0 35.474956 0 148.038638 0 148.038638s4.093225 71.631434-17.055444 118.020974c0 0-30.699186 83.911108-121.432677 134.393873l-84.593654 38.885636-0.434905 0.049119L591.227436 806.583504c-15.462157 12.975523-45.63741 21.785166-80.329537 21.785166s-64.86738-8.809643-80.329537-21.785166l0-76.145238-0.434905-0.049119-84.593654-38.885636c-90.733491-50.482765-121.432677-134.393873-121.432677-134.393873-21.148669-46.38954-17.055444-118.020974-17.055444-118.020974s0-112.563682 0-148.038638c0-35.474956-26.605961-55.94108-26.605961-55.94108l-90.050945-79.817883c-36.839023-23.876804-22.171975-88.345094-22.171975-88.345094l441.232237 0 2.882654 0 441.232237 0C953.572998 66.945971 968.240045 131.414261 931.401022 155.291065zM511.317455-59.603237c73.701582 0 133.88836 52.272527 137.620357 118.020974L373.696074 58.417737C377.428072-7.329686 437.615872-59.603237 511.317455-59.603237z"  horiz-adv-x="1024" />

    
    <glyph glyph-name="fanhui" unicode="&#58889;" d="M722.477 864l-480.082-479.973 480.082-480.027 59.127 59.29-420.737 420.791 420.737 420.737z"  horiz-adv-x="1024" />

    
    <glyph glyph-name="youjiantou" unicode="&#58881;" d="M704.222 384l-417.314-417.314c-10.657-10.657-10.657-27.934 0-38.59 10.658-10.657 27.934-10.657 38.59 0l434.428 434.428c5.885 5.885 8.513 13.786 7.899 21.479 0.614 7.692-2.015 15.595-7.899 21.478l-434.428 434.429c-5.329 5.329-12.311 7.993-19.296 7.993s-13.967-2.665-19.296-7.993c-10.657-10.657-10.657-27.935 0-38.59l417.315-417.316z"  horiz-adv-x="1024" />

    
    <glyph glyph-name="hf" unicode="&#58939;" d="M450.663026 48.47734 450.663026 272.064628c27.472702 0 416.874479 31.378661 508.774539-276.247648 0 508.198417-284.645922 615.233176-508.774539 615.233176L450.663026 832.928522 64.044642 441.281611 450.663026 48.47734 450.663026 48.47734 450.663026 48.47734zM450.663026 48.47734"  horiz-adv-x="1024" />

    
    <glyph glyph-name="shanchu" unicode="&#58950;" d="M874.048 746.048c-199.936 199.872-524.16 199.936-724.096 0-199.936-200-199.872-524.16 0-724.096 199.936-199.872 524.096-200 724.096 0C1073.984 221.952 1073.984 546.112 874.048 746.048M191.232 63.232c-176.832 176.896-176.832 464.64 0.064 641.408s464.576 176.832 641.344 0 176.832-464.512 0-641.344C655.808-113.536 368.128-113.472 191.232 63.232M718.336 228.224 562.688 383.936l155.648 155.776c14.016 14.016 14.016 36.672 0 50.688-13.952 13.952-36.672 14.016-50.624 0L511.936 434.688 356.224 590.4c-13.952 13.952-36.608 14.016-50.624 0S291.712 553.664 305.664 539.776l155.648-155.712-155.712-155.776c-14.016-13.952-13.952-36.672 0.064-50.624 13.952-13.952 36.608-14.016 50.624-0.064l155.776 155.776 155.712-155.712c13.952-13.952 36.608-14.016 50.56 0C732.288 191.616 732.288 214.336 718.336 228.224"  horiz-adv-x="1024" />

    
    <glyph glyph-name="pencel" unicode="&#59009;" d="M902.82956918 770.7911936099999c-23.22214987 23.2499682-53.38444886 35.98704547-84.96948684 35.98704547-31.30154963 0-61.30621011-12.73707727-84.47802057-35.98704547-7.25013279-7.24880847-7.25013279-18.94863825 0-26.19877104l143.19574833-143.22091805c3.62440425-3.62440425 8.38805782-5.43793067 13.1265417-5.43793066 4.73583525 0 9.50213746 1.81485074 13.10004768 5.43793066 23.22214987 23.14399213 36.01353949 53.17779525 36.04003351 84.45020096C938.84443428 717.40806907 926.05171905 747.59421475 902.82956918 770.7911936099999zM685.09906719 699.95900194c-3.47073738 3.46676314-8.20657262 5.43395643-13.1265417 5.43395643-4.91864477 0-9.63195893-1.9671933-13.1265417-5.43395643L141.80144842 182.89062246000003c-3.05477892-3.05875315-4.73583525-6.99048983-5.12662399-11.13285437l-64.36098904-201.57832533c-2.09568917-6.57453139-0.36164609-13.82466288 4.55699867-18.74198334 3.54757081-3.51842686 8.28340605-5.43793067 13.12654169-5.43793066 1.89035986 0 3.77939542 0.31263099 5.64325998 0.88225631l204.76160011 65.394261c3.49590708 1.08891122 6.47120394 3.21374433 8.69803889 5.9585409l515.72512514 515.66816285c7.24880847 7.24880847 7.24880847 19.0029506 0 26.2530834L685.09906719 699.95900194z"  horiz-adv-x="1024" />

    
    <glyph glyph-name="wodewenjian" unicode="&#58953;" d="M511.998465 4.769886c-209.118761 0-379.230114 170.109306-379.230114 379.230114 0 209.118761 170.110329 379.231137 379.230114 379.231137 209.105458 0 379.232161-170.111353 379.232161-379.231137C891.230626 174.879192 721.103924 4.769886 511.998465 4.769886zM511.998465 727.112522c-189.208293 0-343.111498-153.921625-343.111498-343.112522 0-189.193966 153.903206-343.112522 343.111498-343.112522 189.19499 0 343.114568 153.920602 343.114568 343.112522C855.113033 573.190897 701.193455 727.112522 511.998465 727.112522zM398.679583 421.578874l-83.341127-222.245733 361.14727 0 83.34215 222.245733L398.679583 421.578874zM676.484703 449.35959 676.484703 504.92 495.911068 504.92l-55.56041 55.56041L315.337433 560.48041l0-361.14727 55.56041 250.02645L676.484703 449.35959z"  horiz-adv-x="1024" />

    
    <glyph glyph-name="icon11" unicode="&#58912;" d="M944.868 361.245h-855.634c-9.503 0-17.21 7.703-17.21 17.21v21.187c0 9.503 7.703 17.21 17.21 17.21h855.634c9.503 0 17.21-7.703 17.21-17.21v-21.187c0-9.503-7.703-17.21-17.21-17.21zM544.855 816.868v-855.633c0-9.503-7.703-17.21-17.21-17.21h-21.187c-9.503 0-17.21 7.703-17.21 17.21v855.633c0 9.503 7.703 17.21 17.21 17.21h21.187c9.503 0 17.21-7.703 17.21-17.21z"  horiz-adv-x="1024" />

    
    <glyph glyph-name="cheliangxinxi" unicode="&#58908;" d="M898.177 411.325c-52.109 30.076-127.677 36.917-135.482 37.37l-124.769 152.348c0 0-149.004-8.135-328.041 0-19.222-17.057-72.683-112.299-94.804-152.205h-26.813c-59.569 0-107.802-43.915-107.802-98.248 0-54.194-21.021-98.226 38.507-98.226h47.258c3.353 47.062 45.816 84.523 98.332 84.523 52.472 0 94.985-37.462 98.259-84.523h239.981c3.24 47.062 45.819 84.523 98.243 84.523 52.419 0 94.991-37.462 98.267-84.523h20.543c59.549 0 119.781 17.573 119.781 72.015-0.001 12.897 13.619 55.089-41.462 86.947zM716.238 459.861h-227.318v112.253h135.3l92.017-112.253zM326.096 572.113h128.878v-112.253h-197.853l68.975 112.253zM262.144 325.874c-43.99 0-79.563-35.438-79.563-79.502 0-44.061 35.572-79.511 79.563-79.511 43.952 0 79.545 35.452 79.545 79.511 0.001 44.063-35.593 79.502-79.545 79.502zM703.439 325.874c-44.052 0-79.533-35.438-79.533-79.502 0-44.061 35.48-79.511 79.533-79.511 43.782 0 79.506 35.452 79.506 79.511 0.001 44.063-35.725 79.502-79.506 79.502z"  horiz-adv-x="1024" />

    
    <glyph glyph-name="toupiao" unicode="&#59037;" d="M955.012278 154.272875 560.85315 154.272875 895.829364 493.86113 564.927955 829.310112 154.775574 413.55206l255.734452-259.279185L64.845379 154.272875 19.086196 40.691003l985.826586 0L955.012278 154.272875zM446.881398 512.446417l55.975872-56.890708 126.419248 128.272455 43.419905-43.73099L503.385297 366.552629l-0.528026 0.529049-0.485047-0.529049-98.861612 102.162798L446.881398 512.446417zM736.029868 74.320938l-448.064852 0 0 40.182164 448.064852 0L736.029868 74.320938 736.029868 74.320938z"  horiz-adv-x="1024" />

    
    <glyph glyph-name="xiajiantou" unicode="&#59114;" d="M529.853 144.889l438.649 441.019c8.076 8.068 5.583 24.851-2.489 32.928-8.082 8.068-26.062 9.367-34.144 1.291l-421.101-419.827-421.107 422.239c-8.076 8.069-27.328 5.6-35.403-2.471-8.070-8.076-6.849-28.571 1.219-36.646l435.471-435.419c0.684-1.15 1.449-2.179 2.319-3.047 8.082-8.069 28.508-8.141 36.585-0.065v0zM529.853 144.889z"  horiz-adv-x="1024" />

    
    <glyph glyph-name="loudou" unicode="&#58886;" d="M922.905 784.642c-4.824 3.431-10.463 4.796-15.915 4.307-0.653 0.054-1.316 0.101-1.993 0.101L114.895 789.05c-0.063 0-0.123-0.008-0.181-0.008-0.602-0.003-1.205-0.042-1.81-0.093-0.188-0.016-0.376-0.021-0.563-0.042-0.59-0.062-1.174-0.159-1.762-0.267-0.193-0.035-0.394-0.06-0.586-0.101-0.52-0.11-1.036-0.255-1.549-0.397-0.25-0.071-0.501-0.128-0.748-0.205-0.415-0.134-0.822-0.296-1.231-0.45-0.335-0.128-0.673-0.244-1-0.386-0.311-0.134-0.614-0.294-0.922-0.442-0.409-0.202-0.825-0.394-1.223-0.617-0.242-0.136-0.477-0.29-0.714-0.436-0.451-0.27-0.895-0.545-1.326-0.845-0.059-0.042-0.124-0.075-0.184-0.119-0.175-0.122-0.329-0.264-0.498-0.392-0.392-0.293-0.781-0.591-1.154-0.91-0.279-0.234-0.537-0.483-0.801-0.727-0.294-0.273-0.585-0.546-0.863-0.836-0.288-0.298-0.561-0.603-0.831-0.914-0.231-0.264-0.46-0.528-0.679-0.807-0.264-0.333-0.516-0.67-0.762-1.015-0.205-0.288-0.406-0.576-0.599-0.872-0.219-0.338-0.424-0.682-0.623-1.029-0.195-0.331-0.383-0.664-0.557-1.008-0.167-0.32-0.321-0.647-0.472-0.976-0.178-0.386-0.347-0.774-0.504-1.169-0.121-0.306-0.228-0.611-0.334-0.919-0.148-0.425-0.291-0.852-0.415-1.288-0.086-0.309-0.164-0.616-0.237-0.928-0.107-0.434-0.205-0.866-0.288-1.309-0.065-0.35-0.11-0.703-0.16-1.056-0.056-0.403-0.112-0.801-0.145-1.21-0.039-0.428-0.054-0.857-0.065-1.287-0.009-0.259-0.042-0.511-0.042-0.769 0-0.093 0.014-0.181 0.014-0.27 0.006-0.475 0.039-0.946 0.072-1.418 0.021-0.316 0.035-0.635 0.068-0.946 0.051-0.454 0.131-0.899 0.208-1.35 0.053-0.329 0.098-0.661 0.166-0.984 0.086-0.403 0.202-0.798 0.31-1.198 0.094-0.362 0.18-0.724 0.292-1.079 0.11-0.345 0.25-0.686 0.377-1.026 0.146-0.395 0.284-0.792 0.451-1.178 0.129-0.3 0.284-0.596 0.429-0.893 0.199-0.413 0.392-0.825 0.614-1.223 0.158-0.281 0.335-0.554 0.504-0.83 0.243-0.395 0.484-0.792 0.748-1.172 0.053-0.08 0.098-0.162 0.151-0.239l296.001-416.699 0-242.838c0-9.313 5.413-17.747 13.86-21.639l193.411-89.102c0.113-0.055 0.231-0.102 0.349-0.149 0.214-0.095 0.416-0.189 0.629-0.273 0.559-0.225 1.117-0.427 1.673-0.616 0.179-0.053 0.357-0.106 0.534-0.153 0.617-0.19 1.247-0.357 1.863-0.487 0.118-0.023 0.226-0.035 0.332-0.06 0.712-0.142 1.412-0.248 2.123-0.32 0.035-0.006 0.072-0.012 0.107-0.012 0.783-0.078 1.566-0.118 2.343-0.118 0.006 0 0.006 0 0.006 0 0.006 0 0.014 0 0.014 0 0.012 0 0.022 0 0.034 0 0.688 0 1.381 0.047 2.063 0.106 0.251 0.023 0.492 0.047 0.737 0.077 0.467 0.054 0.937 0.125 1.398 0.214 0.25 0.04 0.51 0.084 0.761 0.136 0.593 0.13 1.167 0.279 1.742 0.452 0.32 0.096 0.641 0.201 0.962 0.308 0.32 0.113 0.651 0.231 0.973 0.355 0.309 0.118 0.61 0.238 0.913 0.374 0.559 0.242 1.109 0.505 1.649 0.796 0.177 0.1 0.355 0.207 0.534 0.308 0.438 0.248 0.865 0.504 1.281 0.778 0.177 0.118 0.355 0.236 0.534 0.36 0.475 0.332 0.947 0.683 1.4 1.049 0.069 0.061 0.153 0.115 0.224 0.173 0.56 0.464 1.099 0.956 1.614 1.478 0.029 0.023 0.053 0.047 0.078 0.072 0.467 0.473 0.919 0.972 1.352 1.487 0.088 0.101 0.172 0.208 0.256 0.314 0.378 0.47 0.746 0.956 1.09 1.46 0.072 0.096 0.144 0.189 0.202 0.285 0.386 0.573 0.748 1.162 1.079 1.778 0.107 0.184 0.19 0.381 0.286 0.564 0.158 0.309 0.325 0.611 0.475 0.925 0.035 0.096 0.069 0.189 0.106 0.279 0.207 0.461 0.391 0.931 0.563 1.4 0.101 0.283 0.214 0.563 0.308 0.842 0.139 0.433 0.257 0.865 0.375 1.305 0.095 0.349 0.19 0.694 0.273 1.044 0.07 0.357 0.13 0.723 0.195 1.092 0.076 0.438 0.148 0.865 0.197 1.305 0.034 0.303 0.052 0.611 0.075 0.914 0.037 0.498 0.065 0.996 0.077 1.495 0 0.101 0.012 0.202 0.012 0.296L632.534 334.73l295.993 416.701C936.15 762.15 933.635 777.028 922.905 784.642zM439.109 342.584c-0.001 0.475-0.036 0.949-0.07 1.424-0.021 0.314-0.033 0.629-0.067 0.943-0.051 0.456-0.132 0.901-0.206 1.347-0.056 0.331-0.101 0.664-0.169 0.989-0.083 0.398-0.2 0.802-0.307 1.193-0.097 0.368-0.183 0.729-0.296 1.079-0.108 0.351-0.249 0.688-0.373 1.032-0.149 0.393-0.289 0.789-0.454 1.175-0.131 0.303-0.285 0.594-0.427 0.891-0.201 0.414-0.396 0.83-0.618 1.228-0.157 0.278-0.334 0.551-0.504 0.824-0.243 0.397-0.483 0.795-0.747 1.174-0.054 0.084-0.095 0.166-0.151 0.237L161.047 741.396l701.917 0L589.292 356.108c-0.035-0.041-0.059-0.089-0.089-0.137-0.35-0.498-0.676-1.021-0.989-1.548-0.096-0.16-0.201-0.32-0.291-0.479-0.279-0.505-0.528-1.016-0.777-1.537-0.096-0.202-0.202-0.397-0.285-0.604-0.202-0.463-0.373-0.938-0.545-1.412-0.096-0.273-0.208-0.534-0.297-0.807-0.124-0.403-0.226-0.813-0.332-1.222-0.095-0.355-0.196-0.706-0.273-1.063-0.071-0.35-0.118-0.706-0.179-1.056-0.071-0.428-0.153-0.86-0.202-1.287-0.034-0.32-0.046-0.641-0.063-0.961-0.032-0.475-0.066-0.938-0.079-1.412 0-0.089-0.01-0.178-0.01-0.261L584.881 39.99l-145.758 67.147L439.123 342.323C439.125 342.412 439.113 342.502 439.109 342.584z"  horiz-adv-x="1024" />

    
    <glyph glyph-name="sign" unicode="&#59046;" d="M306.325687 541.252487c-17.622356 0-31.907711 14.285355-31.907711 31.907711L274.417977 766.774847c0 17.622356 14.285355 31.907711 31.907711 31.907711s31.907711-14.285355 31.907711-31.907711l0-193.614649C338.233398 555.538865 323.948043 541.252487 306.325687 541.252487zM659.348929 541.252487c-17.622356 0-31.907711 14.285355-31.907711 31.907711L627.441219 766.774847c0 17.622356 14.285355 31.907711 31.907711 31.907711s31.907711-14.285355 31.907711-31.907711l0-193.614649C691.25664 555.538865 676.971285 541.252487 659.348929 541.252487zM730.616066 174.63462200000004c-8.462742 0-16.578584 3.361561-22.562878 9.345856l-89.022523 89.023546c-12.4608 12.4608-12.4608 32.662911 0.001023 45.124733 12.4608 12.459776 32.661887 12.461823 45.124733-0.001023l66.459644-66.460668 183.112458 183.112458c12.459776 12.4608 32.663934 12.4608 45.12371 0 12.461823-12.4608 12.461823-32.663934 0-45.124733L753.177921 183.98047699999995C747.195673 177.99618299999997 739.078809 174.63462200000004 730.616066 174.63462200000004zM275.779997 393.798157m-47.25628 0a46.18 46.18 0 1 1 94.51256 0 46.18 46.18 0 1 1-94.51256 0ZM469.578842 393.798157m-47.25628 0a46.18 46.18 0 1 1 94.51256 0 46.18 46.18 0 1 1-94.51256 0ZM275.779997 206.542332m-47.25628 0a46.18 46.18 0 1 1 94.51256 0 46.18 46.18 0 1 1-94.51256 0ZM469.578842 206.542332m-47.25628 0a46.18 46.18 0 1 1 94.51256 0 46.18 46.18 0 1 1-94.51256 0ZM790.945083 698.323848L723.164351 698.323848l0-63.815421 67.780733 0c30.389124 0 55.113225-22.734794 55.113225-50.679239l0-82.587973c0-17.622356 14.285355-31.907711 31.907711-31.907711s31.907711 14.285355 31.907711 31.907711l0 82.587973C909.872706 646.962064 856.522638 698.323848 790.945083 698.323848zM370.141108 698.323848l225.391377 0 0-63.815421-225.391377 0 0 63.815421ZM877.966019 236.91405999999995c-17.622356 0-31.907711-14.285355-31.907711-31.907711L846.058308 86.27520100000004c0-30.390147-24.724101-55.114249-55.113225-55.114249l-616.214527 0c-30.390147 0-55.113225 24.724101-55.113225 55.114249l0 493.121024c0 30.389124 24.724101 55.113225 55.113225 55.113225l67.779709 0 0 63.815421-67.779709 0c-65.577554 0-118.92967-53.351092-118.92967-118.928646l0-493.121024c0-65.578578 53.352115-118.92967 118.92967-118.92967l616.214527 0c65.577554 0 118.928646 53.351092 118.928646 118.92967L909.87373 205.00635C909.872706 222.62870599999997 895.587352 236.91405999999995 877.966019 236.91405999999995z"  horiz-adv-x="1024" />

    
    <glyph glyph-name="jingxuanlipin" unicode="&#58968;" d="M465.715349-64.323748c-2.52859 0-4.41045 0-6.291287 0-93.994768 0-187.989535-0.022513-281.983279 0.01842-20.729114 0.00921-36.121685 11.952216-39.563064 30.593785-0.556679 3.0208-0.538259 6.172583-0.538259 9.261944-0.024559 148.453077-0.024559 296.9082-0.016373 445.360254 0 15.103999 6.390547 21.38403 21.678742 21.38403 99.80817 0.007163 199.617363-0.054235 299.42451 0.147356 5.928013 0.011256 7.41897-1.503237 7.413853-7.369851-0.156566-164.151617-0.12689-328.302211-0.12689-492.453828C465.715349-59.468161 465.715349-61.552635 465.715349-64.323748zM567.093271-64.323748c0 2.907213 0 5.176906 0 7.444553 0.002047 163.959236 0.029676 327.921541-0.11461 491.879754-0.00614 5.741771 1.280156 7.460925 7.336082 7.447623 96.320743-0.215918 192.643532-0.147356 288.965298-0.154519 14.753005 0 21.047362-6.091742 21.050432-20.709671 0.030699-148.650575 0.052189-297.299103-0.01228-445.950701-0.010233-24.679076-15.456017-39.952944-39.905872-39.956014-89.926102-0.004093-179.853228-0.002047-269.778306-0.002047C572.353065-64.323748 570.074162-64.323748 567.093271-64.323748zM465.214952 502.311593c-2.335185 0-4.412496 0-6.488785 0-124.405381 0-248.809739-0.002047-373.21512 0.00614-16.07307 0.002047-22.505573 6.481621-22.508643 22.564925-0.002047 28.290323-0.013303 56.583716 0.00614 84.874039 0.010233 14.241352 6.353708 20.75265 20.467147 20.75572 125.374452 0.027629 250.747881 0.001023 376.122333 0.082888 4.190439 0.002047 6.244214-0.629333 6.219655-5.606695-0.190335-39.141462-0.101307-78.283947-0.12382-117.429503C465.692836 506.051777 465.425753 504.544447 465.214952 502.311593zM567.096341 502.609375c0 2.426259 0 4.322445 0 6.218632-0.001023 38.365796 0.102331 76.729545-0.119727 115.093295-0.030699 5.434779 1.641383 6.727215 6.904247 6.720052 120.516818-0.145309 241.033635-0.104377 361.551476-0.118704 16.23066-0.002047 22.747073-6.6607 22.748097-23.075555 0.001023-28.095895 0.01842-56.18872-0.008186-84.283592-0.01228-13.225209-7.260357-20.808932-20.317745-20.816095-121.874745-0.052189-243.747443-0.033769-365.621165-0.024559C570.902016 502.322849 569.572742 502.466112 567.096341 502.609375zM511.726266 691.188334c-89.119737 0-178.23845-0.024559-267.357164 0.061398-5.377474 0.004093-10.942213 0.180102-16.09456 1.523703-12.365632 3.222391-18.615986 13.913894-15.809057 26.314319 0.88823 3.920286 2.294252 7.812943 4.056386 11.428284 12.625552 25.91216 25.347295 51.780317 38.154995 77.601402 11.556197 23.296589 34.568307 29.385261 56.371892 14.931061 52.928466-35.090193 105.832374-70.220295 158.727071-105.363699 26.377764-17.526165 54.096059-17.705244 80.388888-0.274246 52.768831 34.981722 105.495706 70.028936 158.24714 105.036241 23.087834 15.319917 46.076408 9.405207 58.759265-15.119349 13.153578-25.438369 26.304086-50.878784 39.368636-76.364225 1.665942-3.25002 3.134387-6.67605 4.128017-10.181897 4.360308-15.370059-4.085038-27.694759-19.97289-29.230742-3.846608-0.372483-7.740288-0.349971-11.613502-0.350994C689.962669 691.184241 600.844979 691.187311 511.726266 691.188334z"  horiz-adv-x="1024" />

    
    <glyph glyph-name="gongzuorizhi2" unicode="&#58907;" d="M903.899668 781.0909 120.099309 781.0909c-28.54922 0-51.907207-23.357987-51.907207-51.907207l0-690.367387c0-28.54922 23.357987-51.907207 51.907207-51.907207l783.800359 0c28.54922 0 51.907207 23.357987 51.907207 51.907207L955.806875 729.183693C955.807898 757.732913 932.448888 781.0909 903.899668 781.0909zM347.254865 594.498178l517.674233 0 0-46.756907L347.254865 547.741271 347.254865 594.498178zM347.254865 407.323195l517.674233 0 0-46.76714L347.254865 360.556055 347.254865 407.323195zM253.137301 150.199093l-94.066399-0.207731 0 93.747127 94.066399 0L253.137301 150.199093zM253.137301 337.172485l-94.066399 0 0 93.53428 94.066399 0L253.137301 337.172485zM253.137301 524.205229l-94.066399 0 0 93.823875 94.066399-0.298805L253.137301 524.205229zM347.254865 173.486472l0 46.756907 517.674233 0 0-46.756907L347.254865 173.486472z"  horiz-adv-x="1024" />

    
    <glyph glyph-name="tupian" unicode="&#58965;" d="M808.288077 657.564539 221.017766 657.564539c-44.727691 0-81.117482-34.046421-81.117482-75.895551l0-283.465027c-1.52268-2.291183-2.361791-3.573385-2.412956-3.651157l2.412956-1.576915 0-106.657158c0-41.84299 36.389792-75.883271 81.117482-75.883271l587.270311 0c44.742017 0 81.141018 34.041304 81.141018 75.883271L889.429095 581.668988C889.429095 623.518119 853.02907 657.564539 808.288077 657.564539zM175.716001 186.318732l0 100.994182c12.044314 17.830087 35.917024 52.40965 62.431911 86.653569 71.251787 92.02081 92.917226 93.315292 93.803409 93.325525 4.206812 0 11.740392-2.8847 23.740704-16.625656 10.924817-12.509918 21.894659-29.850865 32.503275-46.620807 22.163789-35.038004 41.305755-65.298192 67.598584-68.601424 2.320858-0.292666 4.607948-0.432859 6.871501-0.431835 27.476795 0.002047 50.738591 20.581758 69.710688 37.369096 8.767688 7.758708 19.346627 17.119913 26.77276 20.572548 7.745405-6.493901 32.151257-32.991392 97.43717-140.420123 24.783453-40.779775 47.989991-80.960916 62.424748-106.283652L221.017766 146.250154C196.037838 146.251178 175.716001 164.224528 175.716001 186.318732zM853.613378 186.318732c0-22.094204-20.333094-40.067554-45.325301-40.067554l-48.106648 0c-12.277628 21.771863-44.778856 78.886675-79.192643 135.049812-25.681916 41.909505-47.435359 75.173097-64.659649 98.865705-28.746718 39.543621-43.733037 52.006468-59.391668 49.364291-17.32969-2.921539-32.373315-16.232706-48.299029-30.325679-15.914458-14.08274-33.945113-30.05041-48.373731-28.224832-0.49835 0.062422-5.16872 0.972141-15.369036 13.433964-8.384971 10.246365-17.152658 24.106024-26.435069 38.779212-24.853038 39.288818-50.551326 79.915098-86.512353 79.915098-18.203594 0-48.529273-12.180414-122.083499-107.164718-12.219299-15.779382-23.887037-31.624255-34.150798-45.947472L175.713954 581.668988c0 22.100344 20.321838 40.079834 45.301765 40.079834l587.270311 0c24.992207 0 45.325301-17.97949 45.325301-40.079834L853.611332 186.318732zM722.368218 583.001333c-36.302811 0-65.836451-29.53364-65.836451-65.836451s29.53364-65.836451 65.836451-65.836451c36.308951 0 65.849754 29.534663 65.849754 65.836451S758.677169 583.001333 722.368218 583.001333zM722.368218 487.143125c-16.554024 0-30.020734 13.467733-30.020734 30.020734 0 16.553001 13.46671 30.020734 30.020734 30.020734 16.561188 0 30.034037-13.467733 30.034037-30.020734C752.402255 500.610858 738.929406 487.143125 722.368218 487.143125z"  horiz-adv-x="1024" />

    
    <glyph glyph-name="stop-fill" unicode="&#58911;" d="M830.016 700.137c-84.922 84.42-197.899 131.014-318.016 131.014s-232.97-46.594-318.016-131.014c-84.922-84.546-131.765-197.022-131.765-316.639 0-119.741 46.845-232.218 131.765-316.639 84.922-84.546 197.899-131.014 318.016-131.014s233.095 46.469 318.016 131.014c84.922 84.546 131.765 197.022 131.765 316.764 0.125 119.49-46.719 231.968-131.765 316.513v0 0zM736.953 343.919h-257.018c257.018 0 0 0 0 0v0h-192.764c-17.66 0-32.19 17.66-32.19 39.454s14.404 39.454 32.19 39.454h449.782c17.786 0 32.19-17.66 32.19-39.454-0.125-21.794-14.404-39.454-32.19-39.454v0 0zM736.953 351.184z"  horiz-adv-x="1024" />

    
    <glyph glyph-name="mima" unicode="&#59225;" d="M730.741933 511.948067 313.146023 511.948067l0 85.126796c0 107.165742 84.511789 191.125969 192.618972 191.795211 105.652272-0.61603 185.202049-82.782402 185.202049-191.795211l0-42.620703c0-11.744485 8.873088-21.308305 19.887956-21.308305 11.013845 0 19.887956 9.510608 19.887956 21.308305l0 42.620703c0 132.788306-95.994308 233.07436-223.674269 234.358609l-2.559289 0C374.74087 830.149223 273.370111 727.680457 273.370111 597.075887l0-87.364767c-67.287499-10.516518-119.328759-72.098062-119.328759-146.994865l0-276.976242c0-82.331123 62.432934-149.174508 139.216715-149.174508l437.483866 0c76.841086 0 139.216715 66.843384 139.216715 149.174508L869.958648 362.716254C869.958648 444.994166 807.474548 511.948067 730.741933 511.948067L730.741933 511.948067zM830.182736 85.797317c0-58.788941-44.578288-106.553805-99.441826-106.553805l-437.483866 0c-54.859445 0-99.387591 47.764863-99.387591 106.553805L193.869453 362.77356c0 58.785871 44.579311 106.496499 99.387591 106.496499l437.483866 0c54.91675 0 99.441826-47.764863 99.441826-106.496499L830.182736 85.797317 830.182736 85.797317zM511.974417 384.085958c-65.768913 0-119.328759-57.332776-119.328759-127.862109 0-63.317071 43.325761-115.66737 99.860359-125.682467-0.053212-0.780783-0.418532-1.342578-0.418532-2.122337l0-63.933101c0-11.80179 8.873088-21.36561 19.887956-21.36561 11.013845 0 19.887956 9.56382 19.887956 21.36561l0 63.933101c0 0.780783-0.36532 1.342578-0.418532 2.122337 56.534598 10.015098 99.860359 62.365396 99.860359 125.682467C631.3042 326.753181 577.797565 384.085958 511.974417 384.085958L511.974417 384.085958zM511.974417 170.982442c-43.848671 0-79.55387 38.314631-79.55387 85.184101 0 47.041386 35.759435 85.188194 79.55387 85.188194s79.446423-38.257326 79.446423-85.188194C591.525218 209.239767 555.823088 170.982442 511.974417 170.982442L511.974417 170.982442z"  horiz-adv-x="1024" />

    
    <glyph glyph-name="bumen" unicode="&#58997;" d="M912.00000031 538.00000031c34.00000031 0 61.99999969 28.00000031 61.99999969 61.99999969L974 784.00000031c0 34.00000031-28.00000031 61.99999969-61.99999969 61.99999969l-184.00000031 0c-34.00000031 0-61.99999969-28.00000031-61.99999969-61.99999969l0-61.99999969L357.99999969 721.99999969 357.99999969 784.00000031c0 34.00000031-28.00000031 61.99999969-61.99999969 61.99999969L111.99999969 846C78.00000031 846 50 817.99999969 50 784.00000031l0-184.00000031c0-34.00000031 28.00000031-61.99999969 61.99999969-61.99999969l61.99999968 0 0-307.99999969L111.99999969 229.99999968999998c-34.00000031 0-61.99999969-28.00000031-61.99999969-61.99999969L50-16.00000031000002c0-34.00000031 28.00000031-61.99999969 61.99999969-61.99999969l184.00000031 0c34.00000031 0 61.99999969 28.00000031 61.99999969 61.99999969l0 61.99999969 307.99999969 0L666.00000031-16.00000031000002c0-34.00000031 28.00000031-61.99999969 61.99999969-61.99999969L912.00000031-78c34.00000031 0 61.99999969 28.00000031 61.99999969 61.99999969l0 184.00000031c0 34.00000031-28.00000031 61.99999969-61.99999969 61.99999969l-61.99999969 0L849.99999969 538.00000031 912.00000031 538.00000031zM728 784.00000031L912.00000031 784.00000031l0-184.00000031-184.00000031 0L728 784.00000031zM111.99999969 784.00000031l184.00000031 0 0-184.00000031L111.99999969 600 111.99999969 784.00000031zM912.00000031 168L912.00000031-16.00000031000002l-184.00000031 0 0 184.00000031 61.99999969 0 61.99999968 0L912.00000031 168zM789.99999969 229.99999968999998l-61.99999969 0c-34.00000031 0-61.99999969-28.00000031-61.99999969-61.99999969l0-61.99999969L357.99999969 106.00000031000002l0 61.99999969c0 34.00000031-28.00000031 61.99999969-61.99999969 61.99999969l-61.99999969 0L234.00000031 538.00000031l61.99999969 0c34.00000031 0 61.99999969 28.00000031 61.99999969 61.99999969l0 61.99999969 307.99999968 0 1e-8-61.99999969c0-34.00000031 28.00000031-61.99999969 61.99999968-61.99999969l61.99999969 0L789.99999969 229.99999968999998z"  horiz-adv-x="1024" />

    
    <glyph glyph-name="chenggong" unicode="&#59244;" d="M511.99693 831.437565c-247.112074 0-447.432449-200.324468-447.432449-447.437565s200.319351-447.437565 447.432449-447.437565c247.117191 0 447.437565 200.324468 447.437565 447.437565S759.114121 831.437565 511.99693 831.437565zM758.736521 520.623657l-302.003242-302.008358c-7.108908-7.104815-16.853853-9.973142-26.081005-8.600889-9.237385-1.372254-18.981307 1.496074-26.086122 8.600889L265.262456 357.913878c-11.907191 11.916401-11.907191 31.231305 0 43.148729 11.912307 11.912307 31.236422 11.912307 43.148729 0L430.652274 278.821519l284.940634 284.945751c11.912307 11.907191 31.231305 11.907191 43.143613 0C770.648828 551.850869 770.648828 532.530848 758.736521 520.623657z"  horiz-adv-x="1024" />

    
    <glyph glyph-name="toupiao3" unicode="&#59006;" d="M955.01 90.27500000999999L560.852 90.27500000999999l386.175 339.587L564.927 816.51000001 154.775 349.55300001l255.734-259.279L64.845 90.27400001000001 19.086-23.30699999000001l985.824 0L955.01 90.27500000999999zM446.88 448.44700001l55.976-56.891 126.419 128.272 43.42-43.731L503.384 302.55400001l-0.528 0.529-0.485-0.529L403.51 404.71600001 446.88 448.44700001zM736.028 10.323000009999987L287.964 10.323000009999987l0 40.182 448.064 0L736.028 10.323000009999987 736.028 10.323000009999987z"  horiz-adv-x="1024" />

    
    <glyph glyph-name="nshu" unicode="&#58890;" d="M855.252 769.814h-686.554c-63.197 0-114.422-50.168-114.422-112.092v-448.847c0-61.868 38.515-118.145 101.718-118.145h237.337l118.67-135.815 118.667 135.813h237.337c63.197 0 101.718 56.277 101.718 118.145v448.849c-0.001 61.914-51.27 112.092-114.471 112.092zM274.657 369.79c-28.085 0-50.85 22.788-50.85 50.951 0 28.124 22.766 50.908 50.85 50.908 28.092 0 50.863-22.784 50.863-50.908-0.005-28.16-22.771-50.951-50.863-50.951zM512.002 369.79c-28.093 0-50.858 22.788-50.858 50.951 0 28.124 22.764 50.908 50.858 50.908 28.088 0 50.859-22.784 50.859-50.908 0-28.16-22.771-50.951-50.859-50.951zM749.334 369.79c-28.098 0-50.859 22.788-50.859 50.951 0 28.124 22.762 50.908 50.859 50.908 28.093 0 50.859-22.784 50.859-50.908 0.004-28.16-22.766-50.951-50.859-50.951z"  horiz-adv-x="1024" />

    
    <glyph glyph-name="iconlingdang" unicode="&#58893;" d="M878.736 848.427c-6.382 0.212-12.772 0.149-19.157 0.078-2.224-3.445-7.415 0.757-9.876-2.078-44.729-11.664-67.18-41.372-69.764-87.658-23.772 9.164-47.385 15.465-72.080 18.023-35.272 3.65-69.867 0.143-104.062-8.071-77.087-18.538-142.731-58.337-201.577-110.213-24.34-21.457-46.42-45.539-76.927-59.153-35.503-15.847-73.239-23.225-110.929-31.017-28.326-5.852-56.902-10.462-84.394-20.080-29.83-10.436-45.892-31.449-50.613-62.064-0.262-1.687-1.083-3.29-1.64-4.93-0.453-0.697-0.882-1.005-1.298-0.959-0.382-3.176 0.882-6.564-1.103-9.54v-2.124c1.702-4.944 1.702-9.901 0-14.851v-2.121c2.145-3.707 0.624-7.786 1.129-11.654 0.424 0.046 0.857-0.268 1.311-0.944 5.11-25.968 11.267-51.592 21.575-76.132 24.351-57.977 59.441-109.038 100.287-156.345 60.879-70.492 128.447-133.422 209.458-180.507 45.276-26.304 92.975-46.669 146.315-48.524 31.090-1.079 61.189 3.084 81.768 30.584 10.076 13.479 15.027 29.497 19.436 45.522 10.674 38.804 17.703 78.516 29.584 117.031 12.072 39.117 31.054 73.941 60.019 103.369 44.524 45.264 80.604 96.502 104.742 155.479 28.377 69.336 39.067 140.605 20.168 214.454-2.789 10.886-6.822 21.446-10.277 32.156 55.135 8.673 79.712 28.723 88.843 72.513 2.212 1.862-0.63 6.12 1.907 7.837v18.354c1.87 35.395-38.579 75.127-72.845 73.565v0 0zM728.806 691.368c-66.696-12.66-116.431-53.929-164.094-98.188-46.482-43.152-87.193-91.66-127.117-140.813-37.742-46.467-82.966-82.754-140.441-101.927-11.664-3.893-23.948-5.95-35.972-8.74-9.828-2.274-18.224 0.087-26.545 6.172-22.339 16.327-39.537 36.18-47.040 63.339-1.119 4.053-1.522 8.313-2.212 12.484-0.857 5.131 0.412 7.504 6.533 7.399 52.732-0.845 100.679 16.125 146.366 40.603 50.003 26.799 92.442 63.519 133.433 102.21 33.643 31.765 65.583 65.505 104.009 91.886 43.358 29.75 90.752 41.434 142.855 32.332 3.456-0.604 6.812-1.749 10.206-2.646 1.278-1.366 1.264-2.738 0.020-4.114v0 0zM866.036 719.923c-22.977-0.282-42.661 19.075-42.996 42.28-0.336 23.013 18.998 42.636 42.27 42.893 23.275 0.252 42.639-18.77 42.913-42.171 0.269-23.112-18.967-42.718-42.187-43.002v0 0zM426.304-24.726c-43.388 20.421-82.82 47.141-120.14 77.035-5.27 4.218-8.565 3.928-13.155-0.471-25.463-24.38-34.926-53.459-25.056-87.631 9.38-32.445 32.219-51.205 64.076-59.993 10.643-0.071 21.287-0.149 31.934-0.217 33.445 7.385 55.939 26.954 66.819 59.683 1.82 5.483 1.556 8.746-4.481 11.591v0 0zM426.304-24.726z"  horiz-adv-x="1024" />

    
    <glyph glyph-name="pptfuzhi" unicode="&#58898;" d="M867.84 591.36 636.16 591.36 629.76 834.56 154.88 834.56 154.88 417.28 867.84 417.28ZM655.36 834.56 655.36 618.24 867.84 618.24ZM251.30496 211.89632l-23.57248 0 0-64.96768 34.66752 0c22.18496 0 33.28 11.61728 33.28 34.8672C295.68 201.84576 280.8832 211.89632 251.30496 211.89632zM35.84 352l0-409.6 952.32 0 0 409.6L35.84 352zM269.33248 78.78656l-41.6 0 0-90.32704-83.2 0 0 291.57888 122.02496 0c71.17312-1.06496 107.68384-33.82272 109.54752-98.24768C375.17312 114.17088 339.57888 79.82592 269.33248 78.78656zM524.48256 78.78656l-41.6 0 0-90.32704-83.2 0 0 291.57888 122.03008 0c71.17312-1.06496 107.67872-33.82272 109.54752-98.24768C630.3232 114.17088 594.72384 79.82592 524.48256 78.78656zM879.46752 203.97568l-74.88 0 0-215.51616-84.58752 0 0 215.51616-74.88 0 0 76.06272 234.34752 0L879.46752 203.97568zM506.45504 211.89632l-23.57248 0 0-64.96768 34.66752 0c22.18496 0 33.28 11.61728 33.28 34.8672C550.83008 201.84576 536.02816 211.89632 506.45504 211.89632z"  horiz-adv-x="1024" />

    
    <glyph glyph-name="Upload2" unicode="&#58976;" d="M542 144l-60 0C465.44 144 452 130.55999999999995 452 114 452 97.44000000000005 465.44 84 482 84l60 0C558.56 84 572 97.44000000000005 572 114 572 130.55999999999995 558.56 144 542 144L542 144zM512 864C246.92 864 32 649.08 32 384s214.92-480 480-480 480 214.92 480 480S777.08 864 512 864L512 864zM512-36c-231.96 0-420 188.04-420 420 0 231.96 188.04 420 420 420s420-188.04 420-420C932 152.03999999999996 743.96-36 512-36L512-36zM540.68 609.24c-15.48 17.76-40.5 17.76-55.98 0L344.84 448.38C335.6 437.82 331.88 423.3 333.68 409.56c1.86-14.64 14.34-25.56 29.1-25.56L452 384 452 234C452 217.44000000000005 465.44 204 482 204l60 0C558.56 204 572 217.44000000000005 572 234L572 384.06l90.66 0c14.76 0 27.24 10.92 29.1 25.56 1.74 13.74-1.98 28.2-11.16 38.82L540.68 609.24 540.68 609.24zM540.68 609.24"  horiz-adv-x="1024" />

    
    <glyph glyph-name="caiwu" unicode="&#58917;" d="M62-39.001c0-14.85 12.15-27.001 27.001-27.001h90c14.85 0 27.001 12.15 27.001 27.001v486c0 14.85-12.15 27.001-27.001 27.001h-90c-14.85 0-27.001-12.15-27.001-27.001v-486zM314-39.001c0-14.85 12.15-27.001 27.001-27.001h90c14.85 0 27.001 12.15 27.001 27.001v324c0 14.85-12.15 27.001-27.001 27.001h-90c-14.85 0-27.001-12.15-27.001-27.001v-324zM566-39.001c0-14.85 12.15-27.001 27.001-27.001h90c14.85 0 27.001 12.15 27.001 27.001v324c0 14.85-12.15 27.001-27.001 27.001h-90c-14.85 0-27.001-12.15-27.001-27.001v-324zM845.001 474c-14.85 0-27.001-12.15-27.001-27.001v-486c0-14.85 12.15-27.001 27.001-27.001h90c14.85 0 27.001 12.15 27.001 27.001v486c0 14.85-12.15 27.001-27.001 27.001h-90zM512 834c-119.293 0-216-96.707-216-216s96.707-216 216-216c119.293 0 216 96.707 216 216 0 119.293-96.707 216-216 216v0zM606.473 560.86c-3.188-45.369-31.473-69.606-81.873-72.756v-24.905h-27.001v25.609c-45.001 5.193-72.11 30.847-80.761 77.002l39.635 11.138c3.289-36.318 23.513-54.050 60.645-53.219 32.181 0 48.263 12.784 48.263 38.369 4.119 18.139-14.45 31.754-55.702 40.844-59.407 12.377-87.484 36.704-84.175 73.022 2.281 42.607 25.296 66.251 72.096 70.978v24.057h27.001v-23.933c41.401-4.158 67.488-27.442 75.686-69.863l-39.847-11.138c-5.78 30.519-22.275 45.371-49.508 44.558-29.702-0.833-44.979-12.377-45.79-34.656-1.663-14.85 15.259-26.416 50.743-34.654 61.883-12.379 92.236-39.203 90.591-80.453v0z"  horiz-adv-x="1024" />

    
    <glyph glyph-name="qiandao1111" unicode="&#58937;" d="M292.83999969 703.99999969M885.39999969 807.66l-115.5 0 0 33c0 9.88000031-7.99999969 17.89999969-17.89999969 17.89999969s-17.89999969-7.99999969-17.89999969-17.89999969l0-33L311.79999969 807.66l-21.9 0 0 33c0 9.88000031-7.99999969 17.89999969-17.89999969 17.89999969s-17.89999969-7.99999969-17.89999969-17.89999969l0-33L138.60000031 807.66c-53.26000031 0-96.6-43.33999969-96.6-96.6l0-709.63999969c0-53.26000031 43.33999969-96.6 96.6-96.6l746.80000032 0c53.26000031 0 96.6 43.33999969 96.6 96.6L981.99999969 711.07999969C981.99999969 764.34 938.66 807.66 885.39999969 807.66zM942.00000031 1.4400000000000546c0-31.21999969-25.39999969-56.59999969-56.59999969-56.59999969L138.60000031-55.15999968999995c-31.21999969 0-56.59999969 25.39999969-56.59999969 56.59999969L81.99999969 606.07999969l859.99999969 0L942.00000031 1.4400000000000546zM942.00000031 646.08l-859.99999969 0L81.99999969 711.07999969c0 31.2 25.39999969 56.59999969 56.59999969 56.59999968l115.5 0 0-87c0-9.88000031 7.99999969-17.89999969 17.89999968-17.89999968s17.89999969 7.99999969 17.89999969 17.89999968l0 87 21.9 0 422.32000031 0 0-87c0-9.88000031 7.99999969-17.89999969 17.89999969-17.89999968s17.89999969 7.99999969 17.89999969 17.89999968l0 87 115.5 0c31.21999969 0 56.59999969-25.39999969 56.59999968-56.59999968L942.02 646.08zM469.05999969 148.74c-5.11999969 0-10.24000031 1.96000031-14.14000031 5.86000031l-127.45999969 127.45999969c-7.81999969 7.81999969-7.81999969 20.46 0 28.27999969s20.46 7.81999969 28.27999969 0l113.32000031-113.32000032L723.63999969 451.60000031c7.81999969 7.81999969 20.46 7.81999969 28.27999968 0s7.81999969-20.46 1e-8-28.27999968L483.2 154.60000031000004C479.3 150.70000030999995 474.18000031 148.74 469.05999969 148.74z"  horiz-adv-x="1024" />

    
    <glyph glyph-name="dingwei003" unicode="&#58993;" d="M512.00232903-111.05476381000005c-249.48165063 0-388.72086073 54.95589091-388.72086073 147.16805917 0 53.13376939 80.69146851 99.67529984 192.38462123 125.55525006l26.40271929-46.13402737c-95.16947797-16.53881173-156.49639083-45.88603278-156.49639083-79.40957981 0-51.73777977 157.44529181-85.00285326 326.4287471-85.00285326 168.99044125 0 326.43573191 33.26507349 326.4357319 85.00285326 0 33.52471211-61.32574891 62.87076807-156.49755477 79.40957981l26.40388324 46.13402737c111.69315271-25.87995022 192.37297835-72.42148067 192.37297835-125.55525006C900.7185317-53.92979058000003 753.56793742-111.05476381000005 512.00232903-111.05476381000005L512.00232903-111.05476381000005zM770.5200731 338.82069447000003c-9.06985813-9.8487717-223.75072995-259.63896149-223.75072995-259.63896149-8.99767182-10.94088021-18.85226553-18.55886336-29.51720846-18.55886336-10.66959986 0-18.71371491 8.52846137-26.88939464 18.55886336 0 0-242.10002034 264.64659456-246.20299605 270.38773248-4.10646869 5.74579598-9.71604195 13.05523997-14.21953593 20.59637987-31.89236963 51.15097429-53.04062521 109.6952229-53.04062521 174.38112768 0 184.75033941 150.02756779 334.50662571 335.10157995 334.50662571 185.07052032 0 335.1085659-149.75628629 335.1085659-334.50662571 0-66.71294237-19.82445227-128.68371115-53.60880185-180.81851506C784.23896178 351.55691861 775.46716274 343.74449834999996 770.5200731 338.82069447000003L770.5200731 338.82069447000003zM512.00232903 816.96640114c-151.63778731 0-274.56522354-122.70622037-274.56522354-274.07505522 0-49.96455765 16.39094613-94.76663182 41.43726137-131.23468061 8.25718101-13.07270485 34.10918741-43.57257785 34.10918741-43.57257784l206.64374272-229.81204992 188.28746752 223.44102798c0 0 9.93143694 11.76869433 21.80608228 28.9501969 30.33454365 43.85899406 56.8432128 91.86870158 56.8432128 152.22808576C786.56289451 694.26018077 663.64593721 816.96640114 512.00232903 816.96640114L512.00232903 816.96640114zM512.00232903 415.46507378c-71.42600818 0-129.32407296 57.79909973-129.32407296 129.08306432 0 71.30026439 57.89806478 129.09936413 129.32407296 129.09936412 71.42833721 0 129.31941603-57.79909973 129.31941604-129.09936412C641.32174393 473.26417351 583.42600818 415.46507378 512.00232903 415.46507378L512.00232903 415.46507378zM512.00232903 611.46017451c-37.01293966 0-67.02148039-29.9642971-67.02148039-66.91203641 0-36.9314395 30.0143616-66.89573661 67.02148039-66.89573661 37.01526869 0 67.02264434 29.9642971 67.02264434 66.89573661C579.02497337 581.50169827 549.01643264 611.46017451 512.00232903 611.46017451L512.00232903 611.46017451zM512.00232903 611.46017451"  horiz-adv-x="1024" />

    
    <glyph glyph-name="icon3" unicode="&#58885;" d="M923.562-25.021l-160.754 178.51c-0.118 0.124-0.259 0.219-0.385 0.348 76.105 74.279 123.7 178.947 123.7 294.842 0 224.722-178.598 407.546-398.11 407.546-219.517 0-398.11-182.823-398.11-407.546 0-224.717 178.592-407.539 398.11-407.539 78.19 0 151.123 23.285 212.699 63.306 1.088-2.055 2.346-4.030 3.97-5.826l160.761-178.498c10.564-11.729 28.428-12.479 39.889-1.66l16.617 15.682c11.463 10.82 12.179 29.102 1.614 40.836v0zM140.733 448.681c0 196.029 155.785 355.519 347.283 355.519 191.486 0 347.294-159.49 347.294-355.519s-155.809-355.519-347.295-355.519c-191.495 0-347.282 159.49-347.282 355.519v0zM140.733 448.681z"  horiz-adv-x="1024" />

    
    <glyph glyph-name="tongzhi" unicode="&#58888;" d="M884.644 509.287h-77.429v206.997l-123.698 144.384h-463.636v-351.382h-77.312c-15.345 0-27.762-14.716-27.762-32.903v-534.222c0-18.187 12.416-32.903 27.762-32.903h742.192c15.345 0 27.762 14.716 27.762 32.903v534.361c-0.117 18.048-12.533 32.764-27.879 32.764v0zM344.985 699.068h154.155c6.091 0 11.128-5.97 11.128-13.189 0-7.22-4.92-13.189-11.128-13.189h-154.155c-6.091 0-11.128 5.831-11.128 13.189 0.117 7.22 5.037 13.189 11.128 13.189v0zM344.985 592.863h337.009c6.091 0 11.128-5.831 11.128-13.189 0-7.22-4.92-13.189-11.128-13.189h-337.009c-6.091 0-11.128 5.831-11.128 13.189 0.117 7.22 5.037 13.189 11.128 13.189v0zM344.985 484.158h337.009c6.091 0 11.128-5.831 11.128-13.189 0-7.22-4.92-13.189-11.128-13.189h-337.009c-6.091 0-11.128 5.831-11.128 13.189 0.117 7.358 5.037 13.189 11.128 13.189v0zM856.999-24.937h-686.903v468.555h13.471l330.215-263.363 329.629 263.363h13.354v-468.555h0.234z"  horiz-adv-x="1024" />

    
    </font>
</defs>
</svg>
